<svg width="168" height="49" viewBox="0 0 168 49" fill="none" xmlns="http://www.w3.org/2000/svg">
<path d="M0.741313 24.296C0.741313 17.564 2.45731 11.888 5.88931 7.268C9.36531 2.648 13.9633 0.337999 19.6833 0.337999C23.8633 0.337999 26.9433 1.306 28.9233 3.242C29.0113 1.922 29.4733 1.108 30.3093 0.799997C31.4093 0.315998 32.7513 0.0739983 34.3353 0.0739983C36.4033 0.0739983 38.0313 0.513998 39.2193 1.394C39.7473 4.474 40.0113 7.07 40.0113 9.182C40.0113 12.966 39.2193 16.002 37.6353 18.29C35.3033 19.17 33.2573 19.61 31.4973 19.61C29.8253 19.61 28.0433 19.17 26.1513 18.29C26.1073 18.202 26.0853 18.004 26.0853 17.696C26.0853 17.168 26.1513 16.816 26.2833 16.64C26.2833 14.968 25.5793 13.648 24.1713 12.68C22.7633 11.668 21.4433 11.162 20.2113 11.162C18.4073 11.162 16.8673 12.548 15.5913 15.32C14.3153 18.092 13.6773 21.15 13.6773 24.494C13.6773 27.662 14.2933 30.148 15.5253 31.952C16.7573 33.712 18.2973 34.592 20.1453 34.592C22.2573 34.592 24.2593 33.426 26.1513 31.094C26.0193 30.302 25.9533 29.862 25.9533 29.774C25.9533 29.686 25.9533 29.598 25.9533 29.51C25.9973 29.422 26.0193 29.356 26.0193 29.312C27.6473 28.564 29.4073 28.19 31.2993 28.19C33.2793 28.19 35.4133 28.63 37.7013 29.51C39.2413 31.842 40.0113 34.856 40.0113 38.552C40.0113 40.62 39.7473 43.238 39.2193 46.406C37.8553 47.506 36.0953 48.056 33.9393 48.056C32.3553 48.056 31.1453 47.704 30.3093 47C29.3853 46.648 28.9233 45.79 28.9233 44.426C26.0193 46.406 23.0713 47.396 20.0793 47.396C17.7473 47.396 15.4593 46.912 13.2153 45.944C10.9713 44.976 8.90331 43.568 7.01131 41.72C5.11931 39.872 3.60131 37.452 2.45731 34.46C1.31331 31.424 0.741313 28.036 0.741313 24.296ZM44.637 41.72C44.637 40.18 45.121 38.706 46.089 37.298C47.365 36.374 48.641 35.912 49.917 35.912C51.193 35.912 52.535 36.374 53.943 37.298C54.867 38.706 55.329 40.246 55.329 41.918C55.329 43.546 54.867 45.174 53.943 46.802C52.447 47.858 51.061 48.386 49.785 48.386C48.509 48.386 47.277 47.858 46.089 46.802C45.121 45.086 44.637 43.392 44.637 41.72ZM59.9846 42.644C59.9846 41.5 60.1386 40.4 60.4466 39.344C60.8426 38.684 61.7666 38.354 63.2186 38.354C63.4386 38.354 63.7686 38.398 64.2086 38.486C63.8566 34.394 63.6806 30.5 63.6806 26.804C63.6806 20.116 63.9666 14.55 64.5386 10.106C63.5706 10.106 62.3606 9.996 60.9086 9.776C60.6446 9.424 60.5126 8.104 60.5126 5.816C60.5126 3.528 60.5786 2.23 60.7106 1.922C60.8866 1.57 61.6126 1.24 62.8886 0.931999C64.2086 0.579998 65.8146 0.403998 67.7066 0.403998C70.8746 0.403998 72.7226 0.447997 73.2506 0.535996C73.4266 1.108 73.5146 1.988 73.5146 3.176C74.7466 2.428 76.3526 1.768 78.3326 1.196C80.3126 0.623999 82.0726 0.337999 83.6126 0.337999C87.0006 0.337999 89.8386 1.724 92.1266 4.496C94.4146 7.224 95.5586 10.326 95.5586 13.802C95.5586 17.894 93.9526 21.392 90.7406 24.296C95.2286 26.848 97.4726 30.5 97.4726 35.252C97.4726 38.596 96.3286 41.5 94.0406 43.964C91.7526 46.428 88.7386 47.66 84.9986 47.66C81.8306 47.66 79.2566 46.758 77.2766 44.954C77.2766 45.922 77.1006 46.538 76.7486 46.802C74.2406 47.33 71.2706 47.594 67.8386 47.594C65.4626 47.594 62.9986 47.264 60.4466 46.604C60.1386 45.152 59.9846 43.832 59.9846 42.644ZM75.7586 31.754C75.7586 33.47 76.4186 35.01 77.7386 36.374C79.0586 37.738 80.4666 38.42 81.9626 38.42C83.1066 38.42 83.9866 38.046 84.6026 37.298C85.2186 36.506 85.5266 35.538 85.5266 34.394C85.5266 32.766 84.9326 31.226 83.7446 29.774C82.6006 28.322 81.2366 27.596 79.6526 27.596C78.5526 27.596 77.6286 27.97 76.8806 28.718C76.1326 29.466 75.7586 30.478 75.7586 31.754ZM75.9566 12.68C75.9566 14.264 76.5506 15.694 77.7386 16.97C78.9706 18.246 80.3126 18.884 81.7646 18.884C82.8206 18.884 83.7006 18.532 84.4046 17.828C85.1526 17.124 85.5266 16.2 85.5266 15.056C85.5266 13.516 84.9546 12.064 83.8106 10.7C82.7106 9.292 81.3906 8.588 79.8506 8.588C78.7506 8.588 77.8266 8.984 77.0786 9.776C76.3306 10.524 75.9566 11.492 75.9566 12.68ZM101.356 41.72C101.356 40.18 101.84 38.706 102.808 37.298C104.084 36.374 105.36 35.912 106.636 35.912C107.912 35.912 109.254 36.374 110.662 37.298C111.586 38.706 112.048 40.246 112.048 41.918C112.048 43.546 111.586 45.174 110.662 46.802C109.166 47.858 107.78 48.386 106.504 48.386C105.228 48.386 103.996 47.858 102.808 46.802C101.84 45.086 101.356 43.392 101.356 41.72ZM114.459 42.908C114.459 39.784 114.811 38.156 115.515 38.024C115.515 37.672 116.197 37.496 117.561 37.496C118.705 37.496 119.387 37.672 119.607 38.024C119.915 36.088 122.049 29.466 126.009 18.158C129.969 6.85 132.169 1.174 132.609 1.13C135.117 0.909997 138.131 0.799997 141.651 0.799997C143.807 0.799997 146.227 0.909997 148.911 1.13C149.351 1.174 151.551 6.85 155.511 18.158C159.471 29.422 161.605 36.044 161.913 38.024C162.265 37.672 162.947 37.496 163.959 37.496C165.323 37.496 166.005 37.672 166.005 38.024C166.709 38.156 167.061 39.784 167.061 42.908C167.061 44.932 166.819 46.032 166.335 46.208C165.763 46.736 162.331 47 156.039 47C153.355 47 150.781 46.934 148.317 46.802C145.853 46.626 144.621 46.45 144.621 46.274C143.653 45.658 143.169 43.898 143.169 40.994C143.169 40.158 143.235 39.542 143.367 39.146C143.367 38.882 143.521 38.64 143.829 38.42C144.181 38.2 144.599 38.09 145.083 38.09C146.359 38.09 146.997 38.178 146.997 38.354C147.173 38.354 147.261 38.112 147.261 37.628C147.261 36.88 147.041 35.252 146.601 32.744C145.545 32.964 143.631 33.074 140.859 33.074C137.955 33.074 135.975 32.964 134.919 32.744C134.479 34.9 134.259 36.528 134.259 37.628C134.259 38.112 134.347 38.354 134.523 38.354C134.523 38.178 135.161 38.09 136.437 38.09C136.921 38.09 137.317 38.2 137.625 38.42C137.977 38.64 138.153 38.882 138.153 39.146C138.285 39.542 138.351 40.158 138.351 40.994C138.351 43.898 137.867 45.658 136.899 46.274C136.899 46.45 135.667 46.626 133.203 46.802C130.739 46.934 128.165 47 125.481 47C119.189 47 115.757 46.736 115.185 46.208C114.701 46.032 114.459 44.932 114.459 42.908ZM136.569 25.22C137.801 25.044 139.099 24.956 140.463 24.956C142.091 24.956 143.565 25.066 144.885 25.286C143.565 19.962 142.179 15.408 140.727 11.624C139.275 15.364 137.889 19.896 136.569 25.22Z" fill="#07335C"/>
</svg>
