<svg width="334" height="80" viewBox="0 0 334 80" fill="none" xmlns="http://www.w3.org/2000/svg">
<path d="M9.478 79.816C7.982 79.816 6.706 79.618 5.65 79.222C3.978 78.606 2.768 77.88 2.02 77.044C1.228 76.252 0.832 75.394 0.832 74.47C0.832 73.282 1.426 72.028 2.614 70.708C3.758 69.432 5.364 68.178 7.432 66.946C9.5 65.758 11.876 64.702 14.56 63.778C17.244 62.898 20.104 62.238 23.14 61.798C24.504 61.578 26 61.402 27.628 61.27C29.3 61.138 30.972 61.006 32.644 60.874C34.36 60.786 35.9 60.742 37.264 60.742C38.892 57.97 40.212 55.352 41.224 52.888C42.28 50.424 43.204 47.586 43.996 44.374L44.26 43.318C43.424 44.11 42.236 45.078 40.696 46.222C39.2 47.322 37.44 48.444 35.416 49.588C33.436 50.688 31.302 51.612 29.014 52.36C26.77 53.108 24.46 53.482 22.084 53.482C20.236 53.482 18.454 53.196 16.738 52.624C14.89 51.964 13.218 50.864 11.722 49.324C10.27 47.74 9.104 45.804 8.224 43.516C7.388 41.184 6.97 38.61 6.97 35.794C6.97 33.726 7.234 31.526 7.762 29.194C8.29 26.818 9.148 24.398 10.336 21.934C8.972 20.526 7.894 18.964 7.102 17.248C6.354 15.532 5.98 13.772 5.98 11.968C5.98 10.384 6.31 8.822 6.97 7.282C7.63 5.698 8.664 4.18 10.072 2.728C10.468 2.288 10.842 2.068 11.194 2.068C11.37 2.068 11.458 2.156 11.458 2.332C11.458 2.596 11.304 2.904 10.996 3.256C9.984 4.488 9.236 5.786 8.752 7.15C8.268 8.514 8.026 9.878 8.026 11.242C8.026 12.782 8.312 14.3 8.884 15.796C9.5 17.292 10.358 18.678 11.458 19.954C11.678 19.514 11.898 19.074 12.118 18.634C12.382 18.194 12.646 17.754 12.91 17.314C15.022 13.882 17.596 10.934 20.632 8.47C23.712 6.006 26.99 4.114 30.466 2.794C33.942 1.43 37.33 0.747998 40.63 0.747998C41.202 0.747998 41.752 0.769998 42.28 0.813997C42.852 0.857997 43.424 0.923997 43.996 1.012C48.264 1.672 51.454 3.102 53.566 5.302C55.678 7.502 56.734 9.966 56.734 12.694C56.734 14.586 56.206 16.478 55.15 18.37C54.138 20.262 52.576 22 50.464 23.584C48.396 25.168 45.8 26.444 42.676 27.412C39.596 28.38 36.01 28.908 31.918 28.996C28.706 29.04 25.538 28.644 22.414 27.808C19.29 26.928 16.65 25.784 14.494 24.376C13.394 26.708 12.58 28.996 12.052 31.24C11.568 33.44 11.326 35.508 11.326 37.444C11.326 40.7 12.008 43.494 13.372 45.826C14.736 48.158 16.628 49.72 19.048 50.512C19.752 50.732 20.456 50.886 21.16 50.974C21.908 51.062 22.634 51.106 23.338 51.106C25.318 51.106 27.298 50.82 29.278 50.248C31.302 49.632 33.172 48.84 34.888 47.872C36.604 46.904 38.056 45.892 39.244 44.836C40.476 43.736 41.29 42.724 41.686 41.8C42.698 39.512 43.688 37.928 44.656 37.048C45.668 36.124 46.57 35.662 47.362 35.662C48.022 35.662 48.572 35.97 49.012 36.586C49.496 37.158 49.672 37.95 49.54 38.962C49.1 42.614 48.088 46.156 46.504 49.588C44.964 53.02 42.962 56.738 40.498 60.742C43.49 60.786 46.174 60.94 48.55 61.204C50.97 61.512 53.148 61.908 55.084 62.392C55.612 62.524 55.964 62.678 56.14 62.854C56.36 63.074 56.47 63.25 56.47 63.382C56.47 63.69 56.206 63.844 55.678 63.844C55.414 63.844 55.04 63.778 54.556 63.646C53.544 63.382 52.202 63.14 50.53 62.92C48.858 62.744 47.054 62.612 45.118 62.524C43.226 62.436 41.4 62.392 39.64 62.392C37.792 65.032 35.592 67.408 33.04 69.52C30.532 71.676 27.87 73.524 25.054 75.064C22.238 76.604 19.466 77.77 16.738 78.562C14.054 79.398 11.634 79.816 9.478 79.816ZM30.136 27.016C30.62 27.016 31.104 27.016 31.588 27.016C32.072 26.972 32.556 26.928 33.04 26.884C37.484 26.444 41.246 25.432 44.326 23.848C47.45 22.22 49.804 20.306 51.388 18.106C53.016 15.906 53.83 13.75 53.83 11.638C53.83 9.57 53.038 7.744 51.454 6.16C49.914 4.532 47.538 3.476 44.326 2.992C43.886 2.904 43.512 2.86 43.204 2.86C42.94 2.86 42.566 2.86 42.082 2.86C39.222 2.86 36.252 3.542 33.172 4.906C30.136 6.27 27.232 8.184 24.46 10.648C21.732 13.068 19.378 15.884 17.398 19.096C16.914 19.932 16.54 20.57 16.276 21.01C16.012 21.45 15.704 21.978 15.352 22.594C17.156 23.958 19.334 25.036 21.886 25.828C24.482 26.62 27.232 27.016 30.136 27.016ZM9.412 77.77C11.128 77.77 13.152 77.44 15.484 76.78C17.816 76.164 20.236 75.196 22.744 73.876C25.296 72.6 27.738 71.016 30.07 69.124C32.402 67.232 34.448 65.032 36.208 62.524C34.096 62.568 32.006 62.656 29.938 62.788C27.914 62.964 25.89 63.228 23.866 63.58C21.71 63.932 19.466 64.526 17.134 65.362C14.846 66.242 12.712 67.254 10.732 68.398C8.796 69.542 7.212 70.686 5.98 71.83C4.792 73.018 4.198 74.096 4.198 75.064C4.198 75.636 4.44 76.142 4.924 76.582C5.452 77.022 6.266 77.352 7.366 77.572C7.982 77.704 8.664 77.77 9.412 77.77ZM58.7238 55.264C57.0958 55.264 55.6218 54.736 54.3018 53.68C53.0258 52.624 52.3878 51.018 52.3878 48.862C52.3878 46.882 52.8718 44.77 53.8398 42.526C54.8078 40.238 56.0398 38.236 57.5358 36.52C58.8118 35.024 60.2418 33.792 61.8258 32.824C63.4098 31.856 64.9058 31.372 66.3138 31.372C67.2818 31.372 68.1178 31.636 68.8218 32.164C69.5698 32.736 69.9438 33.55 69.9438 34.606C69.9438 35.706 69.5258 36.916 68.6898 38.236C67.8538 39.556 66.6658 40.788 65.1258 41.932C64.4658 42.416 63.6298 42.878 62.6178 43.318C61.6058 43.758 60.5938 44.132 59.5818 44.44C58.5698 44.704 57.7338 44.836 57.0738 44.836C56.8538 45.364 56.6338 46.068 56.4138 46.948C56.2378 47.828 56.1498 48.73 56.1498 49.654C56.1498 50.754 56.3698 51.744 56.8098 52.624C57.2498 53.504 58.0638 53.944 59.2518 53.944C60.7038 53.944 62.0238 53.526 63.2118 52.69C64.3998 51.854 65.4558 50.82 66.3798 49.588C67.3038 48.312 68.0738 47.036 68.6898 45.76C69.3498 44.484 69.8778 43.406 70.2738 42.526C70.5378 41.91 70.8898 41.602 71.3298 41.602C71.5498 41.602 71.6598 41.712 71.6598 41.932C71.6598 42.108 71.5938 42.328 71.4618 42.592C70.8458 43.912 70.1858 45.32 69.4818 46.816C68.7778 48.268 67.9418 49.654 66.9738 50.974C66.0058 52.25 64.8398 53.284 63.4758 54.076C62.1558 54.868 60.5718 55.264 58.7238 55.264ZM57.5358 43.648C58.1518 43.648 59.1858 43.428 60.6378 42.988C62.0898 42.504 63.4098 41.756 64.5978 40.744C65.7418 39.732 66.6218 38.632 67.2378 37.444C67.8538 36.212 68.1618 35.178 68.1618 34.342C68.1618 33.374 67.8098 32.89 67.1058 32.89C66.5778 32.89 65.8518 33.242 64.9278 33.946C64.0038 34.65 62.8598 35.838 61.4958 37.51C60.6598 38.566 59.8678 39.71 59.1198 40.942C58.3718 42.174 57.8438 43.076 57.5358 43.648ZM72.7849 55.462C71.4209 55.462 70.4749 55.11 69.9469 54.406C69.4189 53.702 69.1549 52.8 69.1549 51.7C69.1549 50.556 69.3529 49.258 69.7489 47.806C70.1889 46.354 70.6509 44.924 71.1349 43.516C70.8269 43.956 70.5189 44.176 70.2109 44.176C70.0349 44.176 69.9029 44.088 69.8149 43.912C69.7269 43.736 69.7489 43.538 69.8809 43.318C70.1009 42.922 70.3209 42.548 70.5409 42.196C70.7609 41.8 70.9589 41.404 71.1349 41.008C71.4869 40.26 71.7729 39.38 71.9929 38.368C72.2569 37.312 72.3889 36.344 72.3889 35.464C72.3889 34.76 72.3009 34.166 72.1249 33.682C71.9489 33.198 71.6849 32.912 71.3329 32.824C71.3329 32.824 71.5529 32.78 71.9929 32.692C72.4769 32.604 72.9829 32.516 73.5109 32.428C74.0389 32.34 74.3909 32.296 74.5669 32.296C74.8309 32.252 75.0729 32.23 75.2929 32.23C75.5129 32.186 75.7109 32.164 75.8869 32.164C76.3269 32.164 76.6129 32.34 76.7449 32.692C76.9209 33.044 76.9869 33.814 76.9429 35.002C76.8989 36.102 76.6789 37.444 76.2829 39.028C75.8869 40.568 75.4689 41.91 75.0289 43.054C74.4569 44.55 73.9289 46.068 73.4449 47.608C72.9609 49.148 72.7189 50.424 72.7189 51.436C72.7189 52.316 72.9609 52.888 73.4449 53.152C73.7969 53.284 74.1049 53.35 74.3689 53.35C75.3809 53.35 76.3709 52.844 77.3389 51.832C78.3509 50.82 79.3189 49.478 80.2429 47.806C81.1669 46.09 82.0249 44.264 82.8169 42.328C82.5089 41.712 82.2889 41.03 82.1569 40.282C82.0249 39.534 81.9589 38.808 81.9589 38.104C81.9589 37.268 82.0689 36.476 82.2889 35.728C82.8169 33.968 83.5429 32.714 84.4669 31.966C85.4349 31.174 86.2489 30.778 86.9089 30.778C87.7449 30.778 88.1629 31.152 88.1629 31.9C88.1629 32.076 88.0969 32.34 87.9649 32.692C87.8769 32.78 87.8329 32.912 87.8329 33.088C87.5249 34.012 87.0629 35.354 86.4469 37.114C85.8749 38.874 85.1489 40.81 84.2689 42.922C83.4329 44.99 82.4209 46.992 81.2329 48.928C80.0889 50.82 78.8129 52.382 77.4049 53.614C75.9969 54.846 74.4569 55.462 72.7849 55.462ZM95.2032 28.204C94.5432 28.204 93.9932 27.984 93.5532 27.544C93.1572 27.06 92.9592 26.488 92.9592 25.828C92.9592 24.992 93.2892 24.266 93.9492 23.65C94.6092 23.034 95.3352 22.726 96.1272 22.726C96.8312 22.726 97.4032 22.946 97.8432 23.386C98.2832 23.826 98.5032 24.354 98.5032 24.97C98.5032 25.806 98.1732 26.554 97.5132 27.214C96.8532 27.874 96.0832 28.204 95.2032 28.204ZM89.8572 55C88.2292 55 87.0852 54.538 86.4252 53.614C85.7652 52.646 85.4352 51.546 85.4352 50.314C85.4352 49.654 85.5012 48.994 85.6332 48.334C85.8092 47.63 86.0072 46.992 86.2272 46.42L90.6492 35.134C90.7812 34.782 90.8472 34.474 90.8472 34.21C90.8472 33.77 90.7372 33.396 90.5172 33.088C90.2972 32.736 90.1432 32.494 90.0552 32.362L93.6852 32.23C94.3452 32.186 94.8072 32.274 95.0712 32.494C95.3792 32.67 95.5332 32.89 95.5332 33.154C95.5332 33.418 95.3792 33.902 95.0712 34.606L89.5932 47.476C89.5932 47.476 89.4612 47.762 89.1972 48.334C88.9772 48.862 88.8452 49.214 88.8012 49.39C88.6692 50.05 88.5812 50.468 88.5372 50.644C88.4932 50.82 88.4712 50.93 88.4712 50.974C88.4712 51.018 88.4712 51.194 88.4712 51.502C88.4712 52.074 88.6032 52.558 88.8672 52.954C89.1752 53.35 89.6812 53.548 90.3852 53.548C90.8252 53.548 91.3312 53.416 91.9032 53.152C92.4752 52.888 92.8932 52.624 93.1572 52.36C94.2572 51.216 95.3352 49.72 96.3912 47.872C97.4912 45.98 98.5032 44.11 99.4272 42.262C99.6032 41.822 99.8232 41.602 100.087 41.602C100.307 41.602 100.417 41.756 100.417 42.064C100.417 42.24 100.351 42.504 100.219 42.856C99.7792 43.78 99.2292 44.924 98.5692 46.288C97.9092 47.652 97.1172 49.016 96.1932 50.38C95.3132 51.7 94.3452 52.8 93.2892 53.68C92.2332 54.56 91.0892 55 89.8572 55ZM104.891 55.264C102.383 55.264 100.623 54.67 99.6108 53.482C98.5988 52.25 98.0928 50.754 98.0928 48.994C98.0928 47.058 98.5328 44.99 99.4128 42.79C100.337 40.59 101.415 38.676 102.647 37.048C103.923 35.332 105.331 34.012 106.871 33.088C108.411 32.12 109.973 31.636 111.557 31.636C113.229 31.636 114.461 32.054 115.253 32.89C116.045 33.726 116.353 34.848 116.177 36.256C116.089 37.136 115.671 38.016 114.923 38.896C114.175 39.732 113.427 40.15 112.679 40.15C112.327 40.15 112.019 40.018 111.755 39.754C112.107 39.314 112.481 38.786 112.877 38.17C113.273 37.554 113.559 36.96 113.735 36.388C113.911 35.86 113.999 35.332 113.999 34.804C113.999 33.704 113.471 33.154 112.415 33.154C111.227 33.154 109.973 33.77 108.653 35.002C107.377 36.19 106.255 37.488 105.287 38.896C104.891 39.424 104.407 40.26 103.835 41.404C103.307 42.504 102.823 43.736 102.383 45.1C101.943 46.42 101.723 47.718 101.723 48.994C101.723 50.314 102.009 51.502 102.581 52.558C103.197 53.57 104.209 54.076 105.617 54.076C107.553 54.076 109.203 53.482 110.567 52.294C111.975 51.062 113.207 49.544 114.263 47.74C115.363 45.936 116.353 44.176 117.233 42.46C117.497 41.932 117.761 41.668 118.025 41.668C118.245 41.668 118.355 41.844 118.355 42.196C118.355 42.372 118.289 42.592 118.157 42.856C117.101 45.144 116.023 47.234 114.923 49.126C113.823 51.018 112.481 52.514 110.897 53.614C109.357 54.714 107.355 55.264 104.891 55.264ZM203.016 62.59C202.356 62.502 201.454 62.326 200.31 62.062C199.166 61.842 198 61.38 196.812 60.676C195.624 59.972 194.612 58.894 193.776 57.442C192.94 56.034 192.522 54.142 192.522 51.766C192.522 49.038 193.072 46.046 194.172 42.79C195.316 39.49 196.702 36.058 198.33 32.494C199.958 28.93 201.52 25.41 203.016 21.934C204.204 19.162 204.798 17.05 204.798 15.598C204.798 14.146 204.248 13.42 203.148 13.42C201.916 13.42 200.068 14.41 197.604 16.39C195.184 18.326 192.368 21.274 189.156 25.234C188.32 26.29 187.242 27.764 185.922 29.656C184.602 31.504 183.194 33.572 181.698 35.86C180.202 38.104 178.728 40.392 177.276 42.724C175.868 45.012 174.614 47.124 173.514 49.06C172.458 50.996 171.688 52.536 171.204 53.68C170.632 55.044 169.972 55.968 169.224 56.452C168.476 56.98 167.772 57.244 167.112 57.244C166.54 57.244 166.034 57.09 165.594 56.782C165.198 56.474 165 56.1 165 55.66C165 55.396 165.066 55.176 165.198 55C165.462 54.472 166.166 53.196 167.31 51.172C168.454 49.148 169.752 46.464 171.204 43.12C172.656 39.732 174.042 35.816 175.362 31.372C176.726 26.884 177.738 21.934 178.398 16.522C178.486 15.906 178.53 15.246 178.53 14.542C178.53 13.002 178.266 11.88 177.738 11.176C177.21 10.428 176.506 10.054 175.626 10.054C174.658 10.054 173.558 10.472 172.326 11.308C171.094 12.144 169.84 13.354 168.564 14.938C166.364 17.71 164.428 20.284 162.756 22.66C161.084 24.992 159.544 27.324 158.136 29.656C156.772 31.988 155.408 34.474 154.044 37.114C152.724 39.754 151.316 42.724 149.82 46.024C148.324 49.28 146.608 53.064 144.672 57.376C144.364 58.08 143.836 58.586 143.088 58.894C142.384 59.202 141.724 59.356 141.108 59.356C140.492 59.356 139.986 59.224 139.59 58.96C139.194 58.696 139.062 58.322 139.194 57.838C140.338 56.078 141.57 53.856 142.89 51.172C144.21 48.488 145.53 45.562 146.85 42.394C148.214 39.182 149.468 35.948 150.612 32.692C151.8 29.392 152.812 26.29 153.648 23.386C154.484 20.438 155.056 17.886 155.364 15.73C155.452 15.026 155.518 14.366 155.562 13.75C155.606 13.134 155.628 12.54 155.628 11.968C155.628 8.58 154.902 6.16 153.45 4.708C152.042 3.256 150.216 2.53 147.972 2.53C146.08 2.53 144.012 2.97 141.768 3.85C139.568 4.686 137.324 5.852 135.036 7.348C132.792 8.844 130.636 10.582 128.568 12.562C126.5 14.498 124.674 16.588 123.09 18.832C121.506 21.032 120.296 23.276 119.46 25.564C118.888 27.192 118.448 28.754 118.14 30.25C117.876 31.702 117.744 33.066 117.744 34.342C117.744 36.806 118.184 38.896 119.064 40.612C119.988 42.328 121.198 43.626 122.694 44.506C124.234 45.386 125.884 45.826 127.644 45.826C128.26 45.826 128.942 45.76 129.69 45.628C130.482 45.452 131.142 45.276 131.67 45.1C132.946 44.616 134.178 43.868 135.366 42.856C136.554 41.8 137.61 40.59 138.534 39.226C139.458 37.862 140.184 36.476 140.712 35.068C141.24 33.66 141.504 32.34 141.504 31.108C141.504 29.832 141.152 28.776 140.448 27.94C139.744 27.104 138.622 26.686 137.082 26.686C136.906 26.686 136.708 26.708 136.488 26.752C136.312 26.752 136.114 26.752 135.894 26.752H135.696C135.388 26.752 135.102 26.708 134.838 26.62C134.574 26.488 134.442 26.334 134.442 26.158C134.442 25.982 134.662 25.784 135.102 25.564C135.586 25.344 136.444 25.234 137.676 25.234C139.656 25.234 141.13 25.828 142.098 27.016C143.11 28.16 143.616 29.634 143.616 31.438C143.616 33.066 143.176 34.826 142.296 36.718C141.416 38.61 140.096 40.414 138.336 42.13C136.576 43.846 134.354 45.254 131.67 46.354C130.086 46.97 128.546 47.278 127.05 47.278C124.85 47.278 122.76 46.728 120.78 45.628C118.8 44.484 117.194 42.878 115.962 40.81C114.73 38.698 114.114 36.212 114.114 33.352C114.114 32.076 114.246 30.734 114.51 29.326C114.818 27.874 115.302 26.378 115.962 24.838C117.414 21.45 119.372 18.326 121.836 15.466C124.344 12.562 127.116 10.054 130.152 7.942C133.188 5.786 136.268 4.114 139.392 2.926C142.516 1.738 145.42 1.144 148.104 1.144C151.36 1.144 154.044 2.112 156.156 4.048C158.312 5.984 159.39 9.108 159.39 13.42C159.39 13.728 159.368 14.146 159.324 14.674C159.324 15.158 159.302 15.532 159.258 15.796C158.994 18.04 158.532 20.284 157.872 22.528C157.256 24.772 156.574 26.928 155.826 28.996C155.694 29.348 155.584 29.722 155.496 30.118C155.452 30.47 155.43 30.712 155.43 30.844C155.43 31.064 155.474 31.174 155.562 31.174C155.738 31.174 156.09 30.712 156.618 29.788C157.63 27.94 158.532 26.334 159.324 24.97C160.16 23.562 160.974 22.286 161.766 21.142C162.558 19.998 163.416 18.832 164.34 17.644C165.264 16.456 166.32 15.136 167.508 13.684C168.872 12.056 170.434 10.758 172.194 9.79C173.954 8.822 175.648 8.338 177.276 8.338C178.728 8.338 179.96 8.822 180.972 9.79C181.984 10.758 182.49 12.408 182.49 14.74C182.49 15.004 182.49 15.224 182.49 15.4C182.49 15.576 182.468 15.84 182.424 16.192C182.028 20.416 181.192 24.574 179.916 28.666C178.64 32.714 177.32 36.806 175.956 40.942C177.32 38.83 179.168 36.146 181.5 32.89C183.832 29.634 186.384 26.268 189.156 22.792C192.544 18.568 195.69 15.4 198.594 13.288C201.498 11.176 203.896 10.12 205.788 10.12C208.164 10.12 209.352 11.572 209.352 14.476C209.352 15.576 209.132 16.896 208.692 18.436C208.296 19.976 207.658 21.604 206.778 23.32C205.81 25.256 204.732 27.5 203.544 30.052C202.4 32.56 201.3 35.2 200.244 37.972C199.188 40.744 198.308 43.472 197.604 46.156C196.944 48.796 196.614 51.238 196.614 53.482C196.614 55.902 197.164 57.86 198.264 59.356C199.408 60.896 201.366 61.622 204.138 61.534H204.534C205.194 61.534 205.524 61.666 205.524 61.93C205.524 62.106 205.304 62.282 204.864 62.458C204.424 62.634 203.808 62.678 203.016 62.59ZM206.906 55C206.422 55 205.828 54.89 205.124 54.67C204.464 54.45 203.87 54.054 203.342 53.482C202.858 52.866 202.616 51.964 202.616 50.776C202.616 49.632 202.88 48.532 203.408 47.476C203.98 46.376 204.508 45.32 204.992 44.308C204.86 44.308 204.706 44.264 204.53 44.176C204.398 44.088 204.332 43.956 204.332 43.78C204.332 43.604 204.376 43.428 204.464 43.252C204.64 42.9 204.838 42.526 205.058 42.13C205.278 41.734 205.476 41.316 205.652 40.876C206.312 39.512 206.972 38.214 207.632 36.982C208.292 35.706 208.864 34.584 209.348 33.616C209.832 32.648 210.668 32.164 211.856 32.164H215.948C215.2 32.736 214.518 33.374 213.902 34.078C213.33 34.738 212.604 35.97 211.724 37.774C211.724 37.774 211.57 38.082 211.262 38.698C210.954 39.314 210.558 40.106 210.074 41.074C209.634 41.998 209.172 42.944 208.688 43.912C208.248 44.88 207.874 45.694 207.566 46.354C206.994 47.586 206.62 48.576 206.444 49.324C206.268 50.028 206.18 50.688 206.18 51.304C206.18 52.756 206.664 53.482 207.632 53.482C208.688 53.482 209.964 52.624 211.46 50.908C212.692 49.456 213.902 47.718 215.09 45.694C216.278 43.67 217.4 41.58 218.456 39.424C219.556 37.268 220.524 35.332 221.36 33.616C221.844 32.648 222.702 32.164 223.934 32.164H227.564C226.904 32.692 226.354 33.198 225.914 33.682C225.474 34.122 225.034 34.738 224.594 35.53C224.198 36.278 223.648 37.356 222.944 38.764C222.372 39.952 221.756 41.228 221.096 42.592C220.48 43.912 219.93 45.166 219.446 46.354C218.962 47.542 218.654 48.51 218.522 49.258C218.478 49.698 218.434 50.028 218.39 50.248C218.346 50.468 218.324 50.71 218.324 50.974C218.324 51.81 218.456 52.404 218.72 52.756C219.028 53.108 219.38 53.284 219.776 53.284C220.832 53.284 221.888 52.69 222.944 51.502C224.044 50.314 225.078 48.862 226.046 47.146C227.058 45.43 227.916 43.802 228.62 42.262C228.884 41.778 229.126 41.536 229.346 41.536C229.61 41.536 229.742 41.69 229.742 41.998C229.742 42.218 229.654 42.482 229.478 42.79C228.994 43.846 228.4 45.056 227.696 46.42C226.992 47.784 226.2 49.126 225.32 50.446C224.44 51.766 223.472 52.866 222.416 53.746C221.36 54.582 220.216 55 218.984 55C217.884 55 216.982 54.604 216.278 53.812C215.574 52.976 215.222 51.81 215.222 50.314C215.222 49.126 215.442 47.85 215.882 46.486C215.134 47.806 214.276 49.126 213.308 50.446C212.34 51.766 211.306 52.866 210.206 53.746C209.106 54.582 208.006 55 206.906 55ZM222.242 55.528C223.826 52.316 225.344 49.148 226.796 46.024C228.292 42.856 229.81 39.842 231.35 36.982C232.23 35.398 232.956 34.298 233.528 33.682C234.144 33.022 234.958 32.692 235.97 32.692C236.322 32.692 236.696 32.758 237.092 32.89C237.488 32.978 237.884 33.022 238.28 33.022C238.544 33.022 238.742 33 238.874 32.956C238.258 33.308 237.466 34.188 236.498 35.596C235.53 36.96 234.54 38.544 233.528 40.348C232.516 42.152 231.614 43.846 230.822 45.43C231.658 44.418 232.516 43.406 233.396 42.394C234.32 41.382 235.332 40.414 236.432 39.49C237.488 38.566 238.742 37.62 240.194 36.652C241.69 35.64 243.142 34.804 244.55 34.144C245.958 33.484 247.08 33.154 247.916 33.154C248.224 33.154 248.444 33.176 248.576 33.22C248.576 33.22 248.334 33.66 247.85 34.54C247.366 35.376 246.75 36.498 246.002 37.906C245.298 39.27 244.572 40.744 243.824 42.328C243.076 43.868 242.394 45.364 241.778 46.816C241.206 48.224 240.832 49.412 240.656 50.38C240.524 50.952 240.458 51.48 240.458 51.964C240.458 52.668 240.59 53.13 240.854 53.35C241.118 53.57 241.404 53.68 241.712 53.68C242.548 53.68 243.428 53.24 244.352 52.36C245.276 51.436 246.156 50.314 246.992 48.994C247.872 47.674 248.642 46.398 249.302 45.166C250.006 43.89 250.512 42.922 250.82 42.262C250.996 41.91 251.128 41.712 251.216 41.668C251.304 41.58 251.436 41.536 251.612 41.536C251.876 41.536 252.008 41.712 252.008 42.064C252.008 42.284 251.942 42.526 251.81 42.79C251.282 43.802 250.644 45.012 249.896 46.42C249.192 47.828 248.378 49.214 247.454 50.578C246.53 51.898 245.518 53.02 244.418 53.944C243.318 54.824 242.13 55.264 240.854 55.264C239.974 55.264 239.05 54.956 238.082 54.34C237.158 53.724 236.696 52.58 236.696 50.908C236.696 50.424 236.74 49.918 236.828 49.39C236.916 48.818 237.07 48.202 237.29 47.542C237.642 46.662 238.06 45.716 238.544 44.704C239.028 43.692 239.82 42.306 240.92 40.546C241.228 40.062 241.404 39.688 241.448 39.424C241.536 39.16 241.58 38.94 241.58 38.764C241.58 38.236 241.338 37.972 240.854 37.972C240.458 37.972 239.864 38.192 239.072 38.632C238.324 39.072 237.378 39.842 236.234 40.942C235.134 41.998 233.814 43.494 232.274 45.43C230.778 47.366 229.04 50.226 227.06 54.01C226.752 54.582 226.4 54.89 226.004 54.934C225.652 54.978 225.146 55.022 224.486 55.066C224.046 55.11 223.628 55.132 223.232 55.132C222.836 55.176 222.506 55.308 222.242 55.528ZM265.27 55C264.082 55 263.092 54.406 262.3 53.218C262.08 52.866 261.882 52.404 261.706 51.832C261.53 51.26 261.442 50.622 261.442 49.918C261.442 49.522 261.464 49.126 261.508 48.73C261.552 48.29 261.64 47.85 261.772 47.41C261.156 48.378 260.43 49.456 259.594 50.644C258.802 51.788 257.878 52.8 256.822 53.68C255.81 54.516 254.666 54.934 253.39 54.934C252.95 54.934 252.488 54.868 252.004 54.736C250.816 54.384 249.958 53.768 249.43 52.888C248.946 52.008 248.704 50.952 248.704 49.72C248.704 48.356 248.968 46.86 249.496 45.232C250.068 43.604 250.772 42.02 251.608 40.48C252.488 38.94 253.39 37.62 254.314 36.52C255.634 34.98 257.152 33.748 258.868 32.824C260.584 31.9 262.322 31.438 264.082 31.438C265.666 31.438 267.162 31.856 268.57 32.692C269.23 31.46 269.934 30.096 270.682 28.6C271.43 27.06 272.178 25.542 272.926 24.046C273.674 22.55 274.334 21.186 274.906 19.954C275.478 18.678 275.918 17.71 276.226 17.05C276.886 15.51 277.502 14.542 278.074 14.146C278.69 13.706 279.416 13.486 280.252 13.486C280.736 13.486 281.264 13.552 281.836 13.684C282.452 13.772 283.046 13.794 283.618 13.75C283.354 14.014 282.804 14.784 281.968 16.06C281.176 17.292 280.23 18.876 279.13 20.812C278.03 22.748 276.842 24.882 275.566 27.214C274.334 29.502 273.102 31.834 271.87 34.21C270.682 36.542 269.56 38.764 268.504 40.876C267.492 42.944 266.678 44.726 266.062 46.222C265.886 46.574 265.622 47.3 265.27 48.4C264.962 49.456 264.808 50.38 264.808 51.172C264.808 51.744 264.94 52.25 265.204 52.69C265.468 53.086 265.908 53.284 266.524 53.284C267.36 53.284 268.196 52.866 269.032 52.03C269.912 51.15 270.748 50.094 271.54 48.862C272.332 47.586 273.036 46.354 273.652 45.166C274.268 43.934 274.73 42.966 275.038 42.262C275.258 41.778 275.522 41.536 275.83 41.536C276.094 41.536 276.226 41.734 276.226 42.13C276.226 42.174 276.226 42.262 276.226 42.394C276.226 42.482 276.182 42.592 276.094 42.724C275.698 43.648 275.148 44.792 274.444 46.156C273.784 47.52 272.992 48.884 272.068 50.248C271.144 51.612 270.11 52.756 268.966 53.68C267.822 54.56 266.59 55 265.27 55ZM253.852 53.02C254.468 53.02 255.238 52.69 256.162 52.03C257.086 51.326 258.076 50.226 259.132 48.73C260.364 46.97 261.772 44.77 263.356 42.13C264.94 39.49 266.502 36.696 268.042 33.748C267.47 33.22 266.81 32.956 266.062 32.956C264.83 32.956 263.444 33.528 261.904 34.672C260.408 35.816 258.934 37.268 257.482 39.028C256.074 40.788 254.886 42.57 253.918 44.374C253.258 45.606 252.774 46.728 252.466 47.74C252.202 48.752 252.07 49.632 252.07 50.38C252.07 52.14 252.664 53.02 253.852 53.02ZM289.304 55.198C288.82 55.242 288.27 55.132 287.654 54.868C287.038 54.604 286.488 54.12 286.004 53.416C285.564 52.712 285.344 51.722 285.344 50.446C285.344 49.39 285.542 48.114 285.938 46.618C285.41 47.454 284.728 48.488 283.892 49.72C283.056 50.908 282.154 51.964 281.186 52.888C280.35 53.68 279.558 54.252 278.81 54.604C278.062 54.956 277.38 55.132 276.764 55.132C275.62 55.132 274.696 54.626 273.992 53.614C273.288 52.558 272.936 51.194 272.936 49.522C272.936 47.762 273.376 45.76 274.256 43.516C275.136 41.272 276.566 38.94 278.546 36.52C279.822 34.98 281.362 33.748 283.166 32.824C285.014 31.856 286.818 31.372 288.578 31.372C289.59 31.372 290.558 31.548 291.482 31.9C292.406 32.208 293.22 32.736 293.924 33.484C294.232 33.792 294.386 34.144 294.386 34.54C294.386 34.804 294.276 35.024 294.056 35.2C293.836 35.376 293.55 35.42 293.198 35.332C292.714 33.792 291.68 33.022 290.096 33.022C289.348 33.022 288.49 33.264 287.522 33.748C286.026 34.54 284.464 35.838 282.836 37.642C281.252 39.446 279.866 41.316 278.678 43.252C278.502 43.516 278.216 44.022 277.82 44.77C277.468 45.518 277.116 46.354 276.764 47.278C276.412 48.202 276.17 49.104 276.038 49.984C275.994 50.248 275.972 50.446 275.972 50.578C275.972 50.666 275.972 50.82 275.972 51.04C275.972 52.492 276.522 53.218 277.622 53.218C278.942 53.218 280.438 52.25 282.11 50.314C283.254 48.906 284.288 47.432 285.212 45.892C286.136 44.352 287.082 42.702 288.05 40.942C288.71 39.754 289.326 38.764 289.898 37.972C290.47 37.18 291.284 36.784 292.34 36.784C292.824 36.784 293.308 36.85 293.792 36.982C294.276 37.114 294.782 37.136 295.31 37.048C294.958 37.4 294.474 38.06 293.858 39.028C293.286 39.996 292.67 41.096 292.01 42.328C291.35 43.56 290.756 44.814 290.228 46.09C289.7 47.366 289.326 48.466 289.106 49.39C289.062 49.654 288.996 50.028 288.908 50.512C288.864 50.996 288.842 51.348 288.842 51.568C288.842 52.8 289.194 53.416 289.898 53.416C290.602 53.416 291.35 52.998 292.142 52.162C292.978 51.326 293.792 50.292 294.584 49.06C295.376 47.828 296.102 46.596 296.762 45.364C297.422 44.088 297.95 43.054 298.346 42.262C298.522 41.822 298.786 41.602 299.138 41.602C299.358 41.602 299.468 41.756 299.468 42.064C299.468 42.196 299.402 42.438 299.27 42.79C298.742 43.89 298.104 45.144 297.356 46.552C296.608 47.916 295.794 49.258 294.914 50.578C294.034 51.854 293.11 52.932 292.142 53.812C291.218 54.648 290.272 55.11 289.304 55.198ZM306.105 55.066C305.269 55.066 304.433 54.736 303.597 54.076C302.761 53.372 302.343 52.25 302.343 50.71C302.343 49.522 302.629 48.158 303.201 46.618C303.729 45.122 304.433 43.67 305.313 42.262C306.237 40.854 306.897 39.71 307.293 38.83C307.425 38.478 307.491 38.17 307.491 37.906C307.491 37.114 306.985 36.542 305.973 36.19C305.005 35.838 303.729 35.64 302.145 35.596L301.353 37.774C300.869 39.182 300.187 40.832 299.307 42.724C298.471 44.616 297.525 46.442 296.469 48.202C295.457 49.962 294.401 51.37 293.301 52.426C293.213 52.514 293.103 52.558 292.971 52.558C292.795 52.558 292.685 52.448 292.641 52.228C292.553 52.008 292.641 51.744 292.905 51.436C294.621 49.148 296.161 46.618 297.525 43.846C298.889 41.03 300.033 38.17 300.957 35.266C301.925 32.362 302.629 29.678 303.069 27.214C303.201 26.51 303.443 26.004 303.795 25.696C304.147 25.344 304.521 25.168 304.917 25.168C305.489 25.168 306.017 25.454 306.501 26.026C306.985 26.554 307.227 27.324 307.227 28.336C307.227 28.512 307.205 28.71 307.161 28.93C307.161 29.15 307.139 29.37 307.095 29.59C306.919 30.514 306.391 31.394 305.511 32.23C304.675 33.022 303.993 33.616 303.465 34.012C303.905 34.056 304.367 34.1 304.851 34.144C305.335 34.144 305.863 34.144 306.435 34.144C308.503 34.144 310.549 34.012 312.573 33.748C312.661 34.012 312.705 34.21 312.705 34.342C312.705 34.914 312.529 35.64 312.177 36.52C311.869 37.4 311.539 38.192 311.187 38.896C311.011 39.292 310.659 40.018 310.131 41.074C309.603 42.086 309.031 43.252 308.415 44.572C307.799 45.848 307.271 47.124 306.831 48.4C306.435 49.632 306.237 50.688 306.237 51.568C306.237 52.712 306.677 53.284 307.557 53.284C308.217 53.284 308.943 52.866 309.735 52.03C310.527 51.15 311.297 50.094 312.045 48.862C312.837 47.586 313.541 46.354 314.157 45.166C314.817 43.934 315.323 42.966 315.675 42.262C315.851 41.822 316.093 41.602 316.401 41.602C316.577 41.602 316.665 41.756 316.665 42.064C316.665 42.24 316.599 42.504 316.467 42.856C315.983 43.868 315.411 45.012 314.751 46.288C314.091 47.564 313.343 48.818 312.507 50.05C311.715 51.282 310.835 52.36 309.867 53.284C308.943 54.164 307.931 54.736 306.831 55C306.699 55.044 306.457 55.066 306.105 55.066ZM320.146 55.264C318.518 55.264 317.044 54.736 315.724 53.68C314.448 52.624 313.81 51.018 313.81 48.862C313.81 46.882 314.294 44.77 315.262 42.526C316.23 40.238 317.462 38.236 318.958 36.52C320.234 35.024 321.664 33.792 323.248 32.824C324.832 31.856 326.328 31.372 327.736 31.372C328.704 31.372 329.54 31.636 330.244 32.164C330.992 32.736 331.366 33.55 331.366 34.606C331.366 35.706 330.948 36.916 330.112 38.236C329.276 39.556 328.088 40.788 326.548 41.932C325.888 42.416 325.052 42.878 324.04 43.318C323.028 43.758 322.016 44.132 321.004 44.44C319.992 44.704 319.156 44.836 318.496 44.836C318.276 45.364 318.056 46.068 317.836 46.948C317.66 47.828 317.572 48.73 317.572 49.654C317.572 50.754 317.792 51.744 318.232 52.624C318.672 53.504 319.486 53.944 320.674 53.944C322.126 53.944 323.446 53.526 324.634 52.69C325.822 51.854 326.878 50.82 327.802 49.588C328.726 48.312 329.496 47.036 330.112 45.76C330.772 44.484 331.3 43.406 331.696 42.526C331.96 41.91 332.312 41.602 332.752 41.602C332.972 41.602 333.082 41.712 333.082 41.932C333.082 42.108 333.016 42.328 332.884 42.592C332.268 43.912 331.608 45.32 330.904 46.816C330.2 48.268 329.364 49.654 328.396 50.974C327.428 52.25 326.262 53.284 324.898 54.076C323.578 54.868 321.994 55.264 320.146 55.264ZM318.958 43.648C319.574 43.648 320.608 43.428 322.06 42.988C323.512 42.504 324.832 41.756 326.02 40.744C327.164 39.732 328.044 38.632 328.66 37.444C329.276 36.212 329.584 35.178 329.584 34.342C329.584 33.374 329.232 32.89 328.528 32.89C328 32.89 327.274 33.242 326.35 33.946C325.426 34.65 324.282 35.838 322.918 37.51C322.082 38.566 321.29 39.71 320.542 40.942C319.794 42.174 319.266 43.076 318.958 43.648Z" fill="#4A2D00"/>
</svg>
