<svg width="364" height="106" viewBox="0 0 364 106" fill="none" xmlns="http://www.w3.org/2000/svg">
<path d="M42.304 46.472V57.8H13.12V46.472H42.304ZM1.344 40.84V27.592H25.152V40.84H21.504V63.752H25.152V77H1.344V63.752H4.992V40.84H1.344ZM30.912 40.84V27.592H54.72V40.84H51.072V63.752H54.72V77H30.912V63.752H34.56V40.84H30.912Z" fill="#0C0A60"/>
<path d="M87.0385 77C85.1825 77 83.7425 76.488 82.7185 75.464C81.7158 74.44 81.2145 72.9893 81.2145 71.112V65.032L82.1105 63.752L81.5985 60.168L81.2145 58.504V55.176C81.2145 54.3013 81.0225 53.6187 80.6385 53.128C80.2758 52.6373 79.7852 52.296 79.1665 52.104C78.5692 51.8907 77.9292 51.784 77.2465 51.784C76.2865 51.784 75.3905 51.9867 74.5585 52.392C73.7478 52.776 73.1932 53.5333 72.8945 54.664L58.3665 52.936C58.7292 50.184 59.6465 47.752 61.1185 45.64C62.5905 43.5067 64.7772 41.8427 67.6785 40.648C70.6012 39.4533 74.4092 38.856 79.1025 38.856C82.7718 38.856 85.9825 39.2827 88.7345 40.136C91.4865 40.968 93.6305 42.376 95.1665 44.36C96.7025 46.344 97.4705 49.032 97.4705 52.424V63.944H100.671V77H87.0385ZM68.4145 77.96C64.5532 77.96 61.6625 77.0533 59.7425 75.24C57.8438 73.4053 56.8945 70.984 56.8945 67.976C56.8945 64.52 58.1212 61.96 60.5745 60.296C63.0492 58.6107 66.6225 57.4373 71.2945 56.776L82.9425 55.048V60.424L77.5025 61.256C76.2225 61.4053 75.3052 61.736 74.7505 62.248C74.1958 62.76 73.9185 63.3893 73.9185 64.136C73.9185 64.904 74.1852 65.4907 74.7185 65.896C75.2518 66.3013 75.9452 66.504 76.7985 66.504C77.5452 66.504 78.2812 66.312 79.0065 65.928C79.7532 65.5227 80.3718 64.8613 80.8625 63.944C81.3532 63.0267 81.5985 61.768 81.5985 60.168L83.0705 67.656H80.8945C80.4252 71.1973 79.0812 73.8 76.8625 75.464C74.6652 77.128 71.8492 77.96 68.4145 77.96ZM150.597 77V64.008H153.349V55.88C153.349 54.664 153.04 53.6933 152.421 52.968C151.824 52.2213 151.045 51.848 150.085 51.848C149.424 51.848 148.773 52.0933 148.133 52.584C147.493 53.0533 146.96 53.864 146.533 55.016C146.128 56.1467 145.925 57.6933 145.925 59.656L143.749 49.992H146.437C146.949 46.344 148.133 43.6027 149.989 41.768C151.866 39.912 154.608 38.984 158.213 38.984C162.053 38.984 164.912 39.9973 166.789 42.024C168.666 44.0293 169.605 46.8133 169.605 50.376V64.008H172.805V77H150.597ZM102.469 77V64.008H105.989V52.872H102.469V39.88H122.245V64.008H124.997V77H102.469ZM126.917 77V64.008H129.669V55.88C129.669 54.664 129.36 53.6933 128.741 52.968C128.144 52.2213 127.365 51.848 126.405 51.848C125.744 51.848 125.093 52.0933 124.453 52.584C123.813 53.0533 123.28 53.864 122.853 55.016C122.448 56.1467 122.245 57.6933 122.245 59.656L120.069 49.992H122.757C123.269 46.344 124.453 43.6027 126.309 41.768C128.186 39.912 130.928 38.984 134.533 38.984C138.373 38.984 141.232 39.9973 143.109 42.024C144.986 44.0293 145.925 46.8133 145.925 50.376V64.008H149.125V77H126.917ZM195.909 77.896C191.429 77.896 187.546 77.0853 184.261 75.464C180.997 73.8427 178.469 71.5813 176.677 68.68C174.906 65.7573 174.021 62.344 174.021 58.44C174.021 54.5573 174.896 51.1547 176.645 48.232C178.394 45.3093 180.88 43.0373 184.101 41.416C187.322 39.7947 191.13 38.984 195.525 38.984C199.92 38.984 203.728 39.7947 206.949 41.416C210.17 43.0373 212.656 45.3093 214.405 48.232C216.154 51.1547 217.029 54.5573 217.029 58.44C217.029 58.8453 217.029 59.2507 217.029 59.656C217.029 60.04 217.029 60.4453 217.029 60.872H201.029C201.072 60.424 201.093 59.9653 201.093 59.496C201.093 59.0267 201.093 58.568 201.093 58.12C201.093 56.7973 200.88 55.6773 200.453 54.76C200.048 53.8427 199.461 53.1493 198.693 52.68C197.925 52.2107 197.018 51.976 195.973 51.976C194.906 51.976 193.978 52.232 193.189 52.744C192.4 53.2347 191.792 53.96 191.365 54.92C190.938 55.88 190.725 57.0533 190.725 58.44C190.725 59.528 190.949 60.488 191.397 61.32C191.845 62.1307 192.474 62.7707 193.285 63.24C194.117 63.7093 195.098 63.944 196.229 63.944C197.253 63.944 198.149 63.7733 198.917 63.432C199.706 63.0693 200.325 62.6 200.773 62.024L216.581 65.672C215.152 69.4693 212.645 72.456 209.061 74.632C205.477 76.808 201.093 77.896 195.909 77.896ZM184.389 60.872V55.496H203.973L203.589 60.872H184.389ZM239.058 64.008H242.002V77H219.282V64.008H222.802V52.872H219.282V39.88H239.058V64.008ZM250.642 54.344C250.386 54.28 250.098 54.2373 249.778 54.216C249.458 54.1733 249.02 54.152 248.466 54.152C245.308 54.152 242.951 54.728 241.394 55.88C239.836 57.032 239.058 58.7813 239.058 61.128L236.882 50.632H239.57C239.74 48.1147 240.178 46.024 240.882 44.36C241.607 42.6747 242.631 41.416 243.954 40.584C245.298 39.7307 246.994 39.304 249.042 39.304C249.362 39.304 249.65 39.3253 249.906 39.368C250.183 39.3893 250.428 39.432 250.642 39.496V54.344ZM272.128 64.008H275.072V77H252.352V64.008H255.872V52.872H252.352V39.88H272.128V64.008ZM255.232 26.44H272.256V38.088H255.232V26.44ZM298.284 77.896C293.804 77.896 289.921 77.0853 286.636 75.464C283.372 73.8427 280.844 71.5813 279.052 68.68C277.281 65.7573 276.396 62.344 276.396 58.44C276.396 55.5173 276.865 52.872 277.804 50.504C278.743 48.1147 280.012 46.0667 281.612 44.36C283.233 42.632 285.047 41.3093 287.052 40.392C289.079 39.4533 291.159 38.984 293.292 38.984C295.233 38.984 296.876 39.3893 298.22 40.2C299.564 41.0107 300.62 42.2587 301.388 43.944C302.156 45.608 302.636 47.7307 302.828 50.312H306.092L303.34 57.544C303.276 56.328 303.02 55.304 302.572 54.472C302.145 53.64 301.559 53.0213 300.812 52.616C300.087 52.1893 299.244 51.976 298.284 51.976C297.239 51.976 296.321 52.2213 295.532 52.712C294.764 53.2027 294.167 53.9067 293.74 54.824C293.313 55.72 293.1 56.776 293.1 57.992C293.1 59.2507 293.313 60.328 293.74 61.224C294.188 62.0987 294.807 62.7707 295.596 63.24C296.407 63.7093 297.367 63.944 298.476 63.944C299.82 63.944 300.919 63.6133 301.772 62.952C302.625 62.2907 303.148 61.4053 303.34 60.296L319.596 64.584C318.572 68.7013 316.183 71.9547 312.428 74.344C308.695 76.712 303.98 77.896 298.284 77.896ZM303.34 57.544V39.88H319.596V57.544H303.34Z" fill="#00034E"/>
<path d="M325.61 67.751C325.61 66.2562 325.891 64.8548 326.451 63.5469C327.012 62.2122 327.786 61.0645 328.773 60.1035C329.761 59.1159 330.909 58.3418 332.217 57.7812C333.525 57.2207 334.926 56.9404 336.421 56.9404C337.889 56.9404 339.277 57.2207 340.585 57.7812C341.893 58.3418 343.041 59.1159 344.028 60.1035C345.016 61.0645 345.79 62.2122 346.351 63.5469C346.911 64.8548 347.191 66.2562 347.191 67.751C347.191 69.2458 346.911 70.6471 346.351 71.9551C345.79 73.2363 345.016 74.3708 344.028 75.3584C343.041 76.346 341.893 77.1201 340.585 77.6807C339.277 78.2412 337.889 78.5215 336.421 78.5215C334.926 78.5215 333.525 78.2412 332.217 77.6807C330.909 77.1201 329.761 76.346 328.773 75.3584C327.786 74.3708 327.012 73.2363 326.451 71.9551C325.891 70.6471 325.61 69.2458 325.61 67.751Z" fill="#FA00FF"/>
</svg>
