<svg width="289" height="51" viewBox="0 0 289 51" fill="none" xmlns="http://www.w3.org/2000/svg">
<path d="M35.0303 46.7432C35.2881 46.915 35.3418 47.1729 35.1914 47.5166C35.041 47.8604 34.7617 48.2041 34.3535 48.5479C33.9453 48.9131 33.4619 49.2246 32.9033 49.4824C32.3447 49.7402 31.7861 49.8584 31.2275 49.8369C30.6904 49.8154 30.1641 49.6543 29.6484 49.3535C29.1328 49.0527 28.6709 48.5908 28.2627 47.9678C27.876 47.3232 27.5537 46.5283 27.2959 45.583C27.0596 44.6377 26.9414 43.5098 26.9414 42.1992V11.6484C26.9414 10.4023 26.8125 9.43555 26.5547 8.74805C26.3184 8.06055 26.0283 7.56641 25.6846 7.26562C25.3623 6.94336 25.0186 6.76074 24.6533 6.71777C24.3096 6.65332 24.0303 6.62109 23.8154 6.62109C23.5791 6.62109 23.2783 6.65332 22.9131 6.71777C22.5479 6.78223 22.1934 6.99707 21.8496 7.3623C21.5273 7.70605 21.248 8.26465 21.0117 9.03809C20.7754 9.79004 20.6572 10.875 20.6572 12.293V47.9355C20.7217 47.9355 20.7861 47.9678 20.8506 48.0322C20.9365 48.1182 20.9795 48.1934 20.9795 48.2578C20.9795 48.4297 20.8506 48.6016 20.5928 48.7734C20.3564 48.9668 20.0557 49.1387 19.6904 49.2891C19.3252 49.4609 18.9062 49.5898 18.4336 49.6758C17.9824 49.7832 17.5527 49.8369 17.1445 49.8369C16.7148 49.8369 16.3281 49.7832 15.9844 49.6758C15.6621 49.5684 15.501 49.2031 15.501 48.5801V11.6484C15.501 10.4023 15.3828 9.43555 15.1465 8.74805C14.9316 8.06055 14.6631 7.56641 14.3408 7.26562C14.0186 6.94336 13.6748 6.76074 13.3096 6.71777C12.9658 6.65332 12.665 6.62109 12.4072 6.62109C12.1924 6.62109 11.9023 6.65332 11.5371 6.71777C11.1934 6.76074 10.8496 6.94336 10.5059 7.26562C10.1621 7.56641 9.86133 8.06055 9.60352 8.74805C9.36719 9.43555 9.24902 10.4023 9.24902 11.6484V40.8779C9.24902 43.7998 8.76562 46.0234 7.79883 47.5488C6.83203 49.0742 5.4248 49.8369 3.57715 49.8369C2.9541 49.8369 2.43848 49.7295 2.03027 49.5146C1.64355 49.2998 1.33203 49.0312 1.0957 48.709C0.859375 48.3867 0.6875 48.043 0.580078 47.6777C0.494141 47.3125 0.451172 46.9795 0.451172 46.6787C0.451172 46.5283 0.494141 46.4316 0.580078 46.3887C0.6875 46.3457 0.827148 46.3242 0.999023 46.3242C1.1709 46.3242 1.36426 46.3242 1.5791 46.3242C1.79395 46.3027 2.01953 46.249 2.25586 46.1631C2.4707 46.0771 2.68555 45.9053 2.90039 45.6475C3.13672 45.3896 3.34082 45.0137 3.5127 44.5195C3.68457 44.0254 3.82422 43.4023 3.93164 42.6504C4.03906 41.8984 4.09277 40.9746 4.09277 39.8789V12.293C4.09277 10.3594 4.3291 8.72656 4.80176 7.39453C5.2959 6.0625 5.92969 4.97754 6.70312 4.13965C7.47656 3.30176 8.34668 2.7002 9.31348 2.33496C10.3018 1.96973 11.29 1.78711 12.2783 1.78711C12.5576 1.78711 12.9336 1.81934 13.4062 1.88379C13.8789 1.92676 14.3945 2.04492 14.9531 2.23828C15.5332 2.43164 16.1133 2.71094 16.6934 3.07617C17.2734 3.41992 17.8213 3.89258 18.3369 4.49414C18.7451 3.89258 19.1963 3.41992 19.6904 3.07617C20.1846 2.71094 20.668 2.43164 21.1406 2.23828C21.6348 2.04492 22.0967 1.92676 22.5264 1.88379C22.9775 1.81934 23.3643 1.78711 23.6865 1.78711C24.7178 1.78711 25.7275 1.96973 26.7158 2.33496C27.7256 2.7002 28.6172 3.30176 29.3906 4.13965C30.1855 4.97754 30.8301 6.0625 31.3242 7.39453C31.8184 8.72656 32.0654 10.3594 32.0654 12.293V41.6514C32.0654 42.3389 32.1406 42.9619 32.291 43.5205C32.4629 44.0576 32.6777 44.541 32.9355 44.9707C33.2148 45.3789 33.5371 45.7334 33.9023 46.0342C34.2676 46.3135 34.6436 46.5498 35.0303 46.7432ZM60.1077 45.4863C60.7737 45.4863 61.343 45.25 61.8157 44.7773C62.3098 44.3047 62.7288 43.7139 63.0725 43.0049C63.4378 42.2959 63.7278 41.5332 63.9427 40.7168C64.179 39.8789 64.3723 39.0947 64.5227 38.3643C64.6731 37.6768 64.888 37.1826 65.1673 36.8818C65.468 36.5596 65.7903 36.3984 66.1341 36.3984C66.3919 36.3984 66.6497 36.4844 66.9075 36.6562C67.1868 36.8066 67.4339 37.0107 67.6487 37.2686C67.885 37.5264 68.0677 37.8164 68.1966 38.1387C68.347 38.4609 68.4221 38.7832 68.4221 39.1055C68.4221 39.1484 68.4221 39.2021 68.4221 39.2666C68.4221 39.3311 68.4007 39.4277 68.3577 39.5566C68.0784 40.6523 67.6917 41.8018 67.1975 43.0049C66.7249 44.208 66.1126 45.3145 65.3606 46.3242C64.6087 47.334 63.6956 48.1719 62.6214 48.8379C61.5686 49.5039 60.3333 49.8369 58.9153 49.8369C57.7552 49.8369 56.7454 49.5898 55.886 49.0957C55.0266 48.6016 54.3499 47.9463 53.8557 47.1299C53.1897 47.8818 52.3841 48.5156 51.4388 49.0312C50.5149 49.5684 49.43 49.8369 48.1839 49.8369C46.8948 49.8369 45.7561 49.5791 44.7679 49.0635C43.8011 48.5479 42.9846 47.8496 42.3186 46.9688C41.6526 46.0664 41.1477 45.0137 40.804 43.8105C40.4817 42.5859 40.3206 41.2754 40.3206 39.8789C40.3206 37.1289 40.761 34.6582 41.6419 32.4668C42.5227 30.2754 43.6936 28.417 45.1546 26.8916C46.6155 25.3447 48.2805 24.1631 50.1497 23.3467C52.0403 22.5303 53.9954 22.1221 56.0149 22.1221C56.9173 22.1221 57.6477 22.3691 58.2063 22.8633C58.7649 23.3574 59.0442 24.0342 59.0442 24.8936C59.0442 25.4521 58.9798 25.8496 58.8509 26.0859C58.7434 26.3008 58.5286 26.4082 58.2063 26.4082C57.9055 26.4082 57.594 26.3867 57.2718 26.3438C56.9495 26.3008 56.6165 26.2793 56.2727 26.2793C55.0266 26.2793 53.7591 26.5586 52.47 27.1172C51.1809 27.6543 50.01 28.4922 48.9573 29.6309C47.9261 30.748 47.0774 32.1768 46.4114 33.917C45.7454 35.6357 45.4124 37.6875 45.4124 40.0723C45.4124 41.8125 45.7454 43.1553 46.4114 44.1006C47.0774 45.0244 47.9905 45.4863 49.1507 45.4863C50.053 45.4863 50.805 45.1533 51.4065 44.4873C52.0081 43.7998 52.4915 42.9941 52.8567 42.0703V31.8867C52.8567 31.5645 52.8352 31.2959 52.7923 31.0811C52.7708 30.8662 52.7386 30.6836 52.6956 30.5332C52.6741 30.3828 52.6526 30.2539 52.6311 30.1465C52.6096 30.0176 52.5989 29.8994 52.5989 29.792C52.5989 29.4482 52.76 29.1797 53.0823 28.9863C53.4261 28.7715 53.8343 28.6641 54.3069 28.6641C55.4026 28.6641 56.2727 28.9541 56.9173 29.5342C57.5618 30.0928 57.8841 30.7695 57.8841 31.5645V42.457C57.8841 42.8223 57.927 43.1875 58.013 43.5527C58.0989 43.8965 58.2278 44.2188 58.3997 44.5195C58.5716 44.7988 58.7971 45.0352 59.0764 45.2285C59.3772 45.4004 59.721 45.4863 60.1077 45.4863ZM85.9586 49.8369C85.2066 49.8369 84.5191 49.7188 83.8961 49.4824C83.2945 49.2461 82.7574 48.9131 82.2847 48.4834C81.8336 48.0752 81.4576 47.5918 81.1568 47.0332C80.856 46.4531 80.6519 45.8301 80.5445 45.1641C79.7496 46.5605 78.815 47.6992 77.7408 48.5801C76.6666 49.4609 75.399 49.9014 73.938 49.9014C72.8423 49.9014 71.8541 49.6758 70.9732 49.2246C70.1138 48.7734 69.3834 48.1396 68.7818 47.3232C68.1802 46.4854 67.7183 45.4863 67.3961 44.3262C67.0953 43.1445 66.9449 41.834 66.9449 40.3945C66.9449 38.6543 67.063 36.9033 67.2994 35.1416C67.5572 33.3799 67.8365 31.79 68.1373 30.3721C68.481 28.7178 68.8785 27.1172 69.3297 25.5703C69.4371 25.291 69.5123 25.0117 69.5552 24.7324C69.6197 24.4316 69.7486 24.1631 69.942 23.9268C70.1353 23.6904 70.4361 23.4971 70.8443 23.3467C71.274 23.1963 71.9293 23.1211 72.8101 23.1211C73.6265 23.1211 74.1529 23.2715 74.3892 23.5723C74.6255 23.8516 74.7115 24.1846 74.647 24.5713C74.6041 24.958 74.4752 25.3555 74.2603 25.7637C74.067 26.1719 73.938 26.5049 73.8736 26.7627C73.5728 27.9873 73.3043 29.1045 73.0679 30.1143C72.8316 31.124 72.6275 32.1445 72.4556 33.1758C72.3052 34.1855 72.1871 35.249 72.1011 36.3662C72.0152 37.4619 71.9722 38.6973 71.9722 40.0723C71.9722 41.877 72.23 43.2412 72.7457 44.165C73.2828 45.0889 74.0347 45.5508 75.0015 45.5508C75.6675 45.5508 76.2798 45.3037 76.8384 44.8096C77.4185 44.3154 77.9341 43.6602 78.3853 42.8438C78.858 42.0059 79.2662 41.0605 79.6099 40.0078C79.9537 38.9336 80.2222 37.8164 80.4156 36.6562V26.0215C80.4156 25.5488 80.3726 25.1729 80.2867 24.8936C80.2222 24.6143 80.147 24.3994 80.0611 24.249C79.9966 24.0771 79.9214 23.9482 79.8355 23.8623C79.7711 23.7549 79.7388 23.6367 79.7388 23.5078C79.7388 23.4004 79.8033 23.3037 79.9322 23.2178C80.0611 23.1318 80.233 23.0566 80.4478 22.9922C80.6627 22.9277 80.8882 22.8848 81.1246 22.8633C81.3824 22.8203 81.6295 22.7988 81.8658 22.7988C82.9615 22.7988 83.8209 23.0889 84.4439 23.6689C85.0884 24.2275 85.4107 24.9043 85.4107 25.6992V42.457C85.4107 42.6074 85.4214 42.8545 85.4429 43.1982C85.4644 43.5205 85.5289 43.8535 85.6363 44.1973C85.7437 44.541 85.9156 44.8418 86.1519 45.0996C86.3882 45.3574 86.7213 45.4863 87.1509 45.4863C87.817 45.4863 88.3863 45.25 88.8589 44.7773C89.3531 44.3047 89.772 43.7139 90.1158 43.0049C90.481 42.2959 90.7711 41.5332 90.9859 40.7168C91.2222 39.8789 91.4156 39.0947 91.566 38.3643C91.6949 37.6768 91.9097 37.1826 92.2105 36.8818C92.5113 36.5596 92.8228 36.3984 93.1451 36.3984C93.4029 36.3984 93.6714 36.4844 93.9507 36.6562C94.23 36.8066 94.4771 37.0107 94.692 37.2686C94.9283 37.5264 95.1109 37.8164 95.2398 38.1387C95.3902 38.4609 95.4654 38.7832 95.4654 39.1055C95.4654 39.1484 95.4654 39.2021 95.4654 39.2666C95.4654 39.3311 95.4439 39.4277 95.4009 39.5566C95.1002 40.6523 94.7027 41.8018 94.2086 43.0049C93.7359 44.208 93.1236 45.3145 92.3716 46.3242C91.6197 47.334 90.7173 48.1719 89.6646 48.8379C88.6119 49.5039 87.3765 49.8369 85.9586 49.8369ZM109.199 49.8369C108.426 49.8369 107.631 49.7188 106.814 49.4824C106.019 49.2461 105.289 48.8379 104.623 48.2578C103.978 47.6777 103.441 46.915 103.012 45.9697C102.603 45.0029 102.399 43.7891 102.399 42.3281C102.399 40.2012 102.679 37.9561 103.237 35.5928C103.817 33.208 104.644 30.5869 105.719 27.7295H100.691H99.95C99.9286 28.374 99.8856 29.1904 99.8211 30.1787C99.7782 31.167 99.6922 32.2197 99.5633 33.3369C99.4344 34.4541 99.2625 35.582 99.0477 36.7207C98.8543 37.8594 98.6073 38.9121 98.3065 39.8789C98.0916 40.5664 97.7479 40.9639 97.2752 41.0713C96.8241 41.1787 96.3729 41.1035 95.9217 40.8457C95.4706 40.5664 95.1053 40.1689 94.826 39.6533C94.5467 39.1377 94.4823 38.6006 94.6327 38.042C94.8045 37.376 94.9549 36.5703 95.0838 35.625C95.2127 34.6582 95.3094 33.6484 95.3739 32.5957C95.4598 31.5215 95.5243 30.458 95.5672 29.4053C95.6102 28.3311 95.6424 27.375 95.6639 26.5371C94.8475 26.0859 94.1707 25.5166 93.6336 24.8291C93.0965 24.1201 92.828 23.2822 92.828 22.3154C92.828 21.8643 92.9139 21.4561 93.0858 21.0908C93.2791 20.7041 93.5262 20.3818 93.827 20.124C94.1278 19.8447 94.4823 19.6406 94.8905 19.5117C95.2987 19.3613 95.7176 19.2861 96.1473 19.2861C96.534 19.2861 96.9315 19.3398 97.3397 19.4473C97.7694 19.5547 98.1668 19.748 98.5321 20.0273C98.9188 20.3066 99.2625 20.6719 99.5633 21.123C99.8641 21.5742 100.111 22.1328 100.305 22.7988C100.842 22.8633 101.293 22.917 101.658 22.96C102.045 22.9814 102.367 23.0029 102.625 23.0244C102.883 23.0459 103.098 23.0566 103.269 23.0566C103.441 23.0566 103.613 23.0566 103.785 23.0566H107.233C107.427 23.0566 107.706 23.1748 108.071 23.4111C108.458 23.6475 108.834 23.959 109.199 24.3457C109.564 24.7109 109.865 25.1084 110.101 25.5381C110.359 25.9678 110.456 26.376 110.391 26.7627C110.391 26.8916 110.316 27.2031 110.166 27.6973C110.015 28.1914 109.833 28.8145 109.618 29.5664C109.403 30.3184 109.167 31.1885 108.909 32.1768C108.651 33.1436 108.415 34.1641 108.2 35.2383C107.985 36.3125 107.803 37.4297 107.652 38.5898C107.502 39.7285 107.427 40.8457 107.427 41.9414C107.427 42.3926 107.48 42.833 107.588 43.2627C107.695 43.6924 107.856 44.0791 108.071 44.4229C108.286 44.7451 108.555 45.0029 108.877 45.1963C109.221 45.3896 109.618 45.4863 110.069 45.4863C110.821 45.4863 111.466 45.25 112.003 44.7773C112.54 44.3047 112.991 43.7139 113.356 43.0049C113.722 42.2959 114.012 41.5332 114.226 40.7168C114.463 39.8789 114.656 39.0947 114.806 38.3643C114.935 37.6768 115.15 37.1826 115.451 36.8818C115.752 36.5596 116.063 36.3984 116.386 36.3984C116.643 36.3984 116.912 36.4844 117.191 36.6562C117.471 36.8066 117.718 37.0107 117.932 37.2686C118.169 37.5264 118.351 37.8164 118.48 38.1387C118.631 38.4609 118.706 38.7832 118.706 39.1055C118.706 39.2129 118.695 39.2988 118.674 39.3633C118.652 39.4277 118.641 39.4922 118.641 39.5566C118.341 40.6523 117.943 41.8018 117.449 43.0049C116.976 44.208 116.364 45.3145 115.612 46.3242C114.86 47.334 113.958 48.1719 112.905 48.8379C111.852 49.5039 110.617 49.8369 109.199 49.8369ZM133.277 28.793C133.277 30.0176 133.063 31.2744 132.633 32.5635C132.225 33.8525 131.602 35.0771 130.764 36.2373C129.947 37.376 128.927 38.4072 127.702 39.3311C126.499 40.2334 125.103 40.9209 123.513 41.3936C123.728 41.9521 124.007 42.4893 124.351 43.0049C124.716 43.499 125.146 43.9287 125.64 44.2939C126.134 44.6592 126.703 44.9492 127.348 45.1641C128.014 45.3789 128.776 45.4863 129.636 45.4863C130.925 45.4863 132.031 45.25 132.955 44.7773C133.879 44.2832 134.652 43.6387 135.276 42.8438C135.92 42.0488 136.436 41.1572 136.822 40.1689C137.209 39.1807 137.499 38.1816 137.692 37.1719C137.843 36.4414 138.144 35.958 138.595 35.7217C139.067 35.4639 139.54 35.3994 140.013 35.5283C140.507 35.6572 140.926 35.9365 141.27 36.3662C141.635 36.7744 141.785 37.2686 141.721 37.8486C141.635 38.5146 141.484 39.2773 141.27 40.1367C141.076 40.9961 140.776 41.8662 140.367 42.7471C139.959 43.6279 139.433 44.498 138.788 45.3574C138.165 46.1953 137.392 46.9473 136.468 47.6133C135.544 48.2793 134.459 48.8164 133.213 49.2246C131.967 49.6328 130.538 49.8369 128.927 49.8369C127.423 49.8369 125.962 49.5361 124.544 48.9346C123.148 48.3545 121.901 47.5166 120.806 46.4209C119.732 45.3037 118.861 43.9395 118.195 42.3281C117.551 40.6953 117.229 38.8477 117.229 36.7852C117.229 34.7012 117.519 32.7676 118.099 30.9844C118.679 29.1797 119.442 27.6221 120.387 26.3115C121.332 25.001 122.406 23.9805 123.609 23.25C124.813 22.498 126.048 22.1221 127.316 22.1221C128.239 22.1221 129.067 22.2832 129.797 22.6055C130.549 22.9277 131.183 23.3896 131.698 23.9912C132.214 24.5713 132.601 25.2695 132.859 26.0859C133.138 26.9023 133.277 27.8047 133.277 28.793ZM122.643 36.5918C122.643 36.7852 122.653 36.9785 122.675 37.1719C122.696 37.3652 122.707 37.5693 122.707 37.7842C123.524 37.3975 124.265 36.9033 124.931 36.3018C125.597 35.7002 126.166 35.0127 126.639 34.2393C127.111 33.4658 127.477 32.6279 127.734 31.7256C127.992 30.8018 128.121 29.8457 128.121 28.8574C128.121 28.127 127.992 27.5576 127.734 27.1494C127.498 26.7412 127.165 26.5371 126.735 26.5371C126.198 26.5371 125.715 26.7197 125.285 27.085C124.877 27.4502 124.512 27.9336 124.19 28.5352C123.889 29.1152 123.631 29.7812 123.416 30.5332C123.223 31.2637 123.062 32.0049 122.933 32.7568C122.804 33.5088 122.718 34.2285 122.675 34.916C122.632 35.582 122.621 36.1406 122.643 36.5918ZM155.841 28.793C155.841 30.0176 155.626 31.2744 155.197 32.5635C154.788 33.8525 154.165 35.0771 153.328 36.2373C152.511 37.376 151.491 38.4072 150.266 39.3311C149.063 40.2334 147.666 40.9209 146.077 41.3936C146.291 41.9521 146.571 42.4893 146.914 43.0049C147.28 43.499 147.709 43.9287 148.204 44.2939C148.698 44.6592 149.267 44.9492 149.912 45.1641C150.578 45.3789 151.34 45.4863 152.2 45.4863C153.489 45.4863 154.595 45.25 155.519 44.7773C156.443 44.2832 157.216 43.6387 157.839 42.8438C158.484 42.0488 158.999 41.1572 159.386 40.1689C159.773 39.1807 160.063 38.1816 160.256 37.1719C160.407 36.4414 160.707 35.958 161.159 35.7217C161.631 35.4639 162.104 35.3994 162.577 35.5283C163.071 35.6572 163.49 35.9365 163.833 36.3662C164.199 36.7744 164.349 37.2686 164.285 37.8486C164.199 38.5146 164.048 39.2773 163.833 40.1367C163.64 40.9961 163.339 41.8662 162.931 42.7471C162.523 43.6279 161.996 44.498 161.352 45.3574C160.729 46.1953 159.955 46.9473 159.032 47.6133C158.108 48.2793 157.023 48.8164 155.777 49.2246C154.531 49.6328 153.102 49.8369 151.491 49.8369C149.987 49.8369 148.526 49.5361 147.108 48.9346C145.711 48.3545 144.465 47.5166 143.37 46.4209C142.295 45.3037 141.425 43.9395 140.759 42.3281C140.115 40.6953 139.792 38.8477 139.792 36.7852C139.792 34.7012 140.082 32.7676 140.663 30.9844C141.243 29.1797 142.005 27.6221 142.951 26.3115C143.896 25.001 144.97 23.9805 146.173 23.25C147.376 22.498 148.612 22.1221 149.879 22.1221C150.803 22.1221 151.63 22.2832 152.361 22.6055C153.113 22.9277 153.746 23.3896 154.262 23.9912C154.778 24.5713 155.164 25.2695 155.422 26.0859C155.702 26.9023 155.841 27.8047 155.841 28.793ZM145.206 36.5918C145.206 36.7852 145.217 36.9785 145.239 37.1719C145.26 37.3652 145.271 37.5693 145.271 37.7842C146.087 37.3975 146.829 36.9033 147.495 36.3018C148.161 35.7002 148.73 35.0127 149.203 34.2393C149.675 33.4658 150.04 32.6279 150.298 31.7256C150.556 30.8018 150.685 29.8457 150.685 28.8574C150.685 28.127 150.556 27.5576 150.298 27.1494C150.062 26.7412 149.729 26.5371 149.299 26.5371C148.762 26.5371 148.279 26.7197 147.849 27.085C147.441 27.4502 147.076 27.9336 146.753 28.5352C146.453 29.1152 146.195 29.7812 145.98 30.5332C145.787 31.2637 145.625 32.0049 145.496 32.7568C145.368 33.5088 145.282 34.2285 145.239 34.916C145.196 35.582 145.185 36.1406 145.206 36.5918ZM163.226 26.0215C163.226 25.3984 163.173 24.9473 163.065 24.668C162.979 24.3887 162.936 24.1309 162.936 23.8945C162.936 23.5723 163.108 23.3145 163.452 23.1211C163.796 22.9062 164.204 22.7988 164.676 22.7988C165.772 22.7988 166.632 23.0889 167.255 23.6689C167.899 24.2275 168.221 24.9043 168.221 25.6992V28.6641C168.673 27.7402 169.156 26.8809 169.672 26.0859C170.209 25.291 170.778 24.6035 171.38 24.0234C172.003 23.4219 172.658 22.96 173.345 22.6377C174.054 22.2939 174.817 22.1221 175.633 22.1221C176.729 22.1221 177.632 22.3262 178.341 22.7344C179.049 23.1426 179.608 23.6689 180.016 24.3135C180.424 24.958 180.704 25.6777 180.854 26.4727C181.026 27.2676 181.112 28.041 181.112 28.793V42.457C181.112 42.6074 181.123 42.8545 181.144 43.1982C181.166 43.5205 181.23 43.8535 181.338 44.1973C181.445 44.541 181.606 44.8418 181.821 45.0996C182.057 45.3574 182.39 45.4863 182.82 45.4863C183.486 45.4863 184.055 45.25 184.528 44.7773C185.022 44.3047 185.441 43.7139 185.785 43.0049C186.15 42.2959 186.44 41.5332 186.655 40.7168C186.891 39.8789 187.085 39.0947 187.235 38.3643C187.364 37.6768 187.579 37.1826 187.88 36.8818C188.18 36.5596 188.492 36.3984 188.814 36.3984C189.072 36.3984 189.341 36.4844 189.62 36.6562C189.899 36.8066 190.146 37.0107 190.361 37.2686C190.597 37.5264 190.78 37.8164 190.909 38.1387C191.059 38.4609 191.134 38.7832 191.134 39.1055C191.134 39.1484 191.134 39.2021 191.134 39.2666C191.134 39.3311 191.113 39.4277 191.07 39.5566C190.791 40.6523 190.404 41.8018 189.91 43.0049C189.437 44.208 188.814 45.3145 188.041 46.3242C187.289 47.334 186.386 48.1719 185.334 48.8379C184.281 49.5039 183.046 49.8369 181.628 49.8369C180.747 49.8369 179.963 49.665 179.275 49.3213C178.609 48.999 178.029 48.5586 177.535 48C177.062 47.4414 176.697 46.7861 176.439 46.0342C176.203 45.2822 176.085 44.4873 176.085 43.6494V30.2432C176.085 29.7275 176.074 29.2441 176.052 28.793C176.031 28.3418 175.966 27.9443 175.859 27.6006C175.773 27.2568 175.633 26.9883 175.44 26.7949C175.268 26.5801 175.021 26.4727 174.699 26.4727C174.226 26.4727 173.646 26.7949 172.959 27.4395C172.271 28.084 171.594 28.9219 170.928 29.9531C170.262 30.9844 169.672 32.1553 169.156 33.4658C168.662 34.7549 168.35 36.0547 168.221 37.3652V47.001C168.221 47.3232 168.211 47.6562 168.189 48C168.189 48.3223 168.125 48.6123 167.996 48.8701C167.888 49.1494 167.706 49.375 167.448 49.5469C167.212 49.7402 166.857 49.8369 166.384 49.8369C166.062 49.8369 165.708 49.7939 165.321 49.708C164.956 49.6436 164.612 49.5039 164.29 49.2891C163.989 49.0957 163.731 48.8057 163.516 48.4189C163.323 48.0537 163.226 47.5596 163.226 46.9365V26.0215ZM200.936 13.4209C200.936 12.7979 200.883 12.3467 200.775 12.0674C200.689 11.7881 200.646 11.5303 200.646 11.2939C200.646 10.9717 200.818 10.7031 201.162 10.4883C201.506 10.2734 201.914 10.166 202.387 10.166C203.482 10.166 204.363 10.4561 205.029 11.0361C205.717 11.5947 206.061 12.2822 206.061 13.0986V37.5586C206.061 39.1484 206.189 40.502 206.447 41.6191C206.705 42.7363 207.092 43.6494 207.607 44.3584C208.123 45.0674 208.757 45.5938 209.509 45.9375C210.261 46.2598 211.12 46.4209 212.087 46.4209C213.011 46.4209 213.859 46.249 214.633 45.9053C215.428 45.5615 216.115 45.0889 216.695 44.4873C217.275 43.8857 217.727 43.1768 218.049 42.3604C218.371 41.5439 218.532 40.6523 218.532 39.6855C218.532 38.2031 218.274 36.9678 217.759 35.9795C217.243 34.9912 216.566 34.1963 215.728 33.5947C214.912 32.9932 213.977 32.5742 212.925 32.3379C211.894 32.0801 210.862 31.9512 209.831 31.9512C209.638 31.9512 209.444 31.833 209.251 31.5967C209.058 31.3389 208.896 31.0273 208.768 30.6621C208.639 30.2969 208.542 29.9102 208.477 29.502C208.413 29.0723 208.402 28.6748 208.445 28.3096C208.488 27.9443 208.585 27.6436 208.735 27.4072C208.907 27.1494 209.165 27.0205 209.509 27.0205C210.024 27.0205 210.647 26.9561 211.378 26.8271C212.108 26.6982 212.871 26.4727 213.666 26.1504C214.461 25.8066 215.245 25.3555 216.019 24.7969C216.792 24.2383 217.49 23.5293 218.113 22.6699C218.736 21.7891 219.241 20.7578 219.628 19.5762C220.015 18.373 220.208 16.9766 220.208 15.3867C220.208 14.1406 219.993 12.916 219.563 11.7129C219.155 10.4883 218.489 9.40332 217.565 8.45801C216.642 7.49121 215.46 6.71777 214.02 6.1377C212.581 5.53613 210.852 5.23535 208.832 5.23535C206.189 5.23535 203.923 5.64355 202.032 6.45996C200.142 7.27637 198.595 8.37207 197.392 9.74707C196.21 11.1221 195.34 12.7227 194.781 14.5488C194.223 16.3535 193.943 18.2656 193.943 20.2852C193.943 21.7461 194.061 22.9814 194.298 23.9912C194.556 24.9795 194.835 25.7959 195.136 26.4404C195.436 27.0635 195.716 27.5254 195.974 27.8262C196.231 28.127 196.382 28.2988 196.425 28.3418C196.79 28.2344 197.048 28.2773 197.198 28.4707C197.349 28.6641 197.424 28.9219 197.424 29.2441C197.424 29.5449 197.316 29.9961 197.102 30.5977C196.908 31.1992 196.64 31.7686 196.296 32.3057C195.952 32.8213 195.555 33.2188 195.103 33.498C194.652 33.7559 194.19 33.7021 193.718 33.3369C193.46 33.1006 193.062 32.6709 192.525 32.0479C191.988 31.4248 191.451 30.5977 190.914 29.5664C190.398 28.5137 189.936 27.2568 189.528 25.7959C189.12 24.3135 188.916 22.6055 188.916 20.6719C188.916 17.5781 189.399 14.7852 190.366 12.293C191.333 9.7793 192.686 7.63086 194.427 5.84766C196.188 4.06445 198.283 2.68945 200.711 1.72266C203.139 0.755859 205.824 0.272461 208.768 0.272461C211.26 0.272461 213.516 0.616211 215.535 1.30371C217.576 1.96973 219.316 2.94727 220.756 4.23633C222.195 5.52539 223.302 7.10449 224.075 8.97363C224.87 10.8213 225.268 12.916 225.268 15.2578C225.268 17.0625 225.053 18.6953 224.623 20.1562C224.193 21.6172 223.592 22.9277 222.818 24.0879C222.066 25.248 221.164 26.2793 220.111 27.1816C219.08 28.0625 217.963 28.8252 216.76 29.4697C217.727 29.749 218.629 30.168 219.467 30.7266C220.305 31.2637 221.035 31.9512 221.658 32.7891C222.281 33.627 222.775 34.6152 223.141 35.7539C223.506 36.8711 223.688 38.1387 223.688 39.5566C223.688 41.2109 223.388 42.7363 222.786 44.1328C222.206 45.5293 221.4 46.7324 220.369 47.7422C219.338 48.752 218.113 49.5361 216.695 50.0947C215.299 50.6748 213.784 50.9648 212.151 50.9648C209.981 50.9648 208.177 50.6318 206.737 49.9658C205.298 49.3213 204.148 48.4082 203.289 47.2266C202.43 46.0234 201.817 44.5947 201.452 42.9404C201.108 41.2646 200.936 39.4062 200.936 37.3652V13.4209ZM246.542 28.793C246.542 30.0176 246.327 31.2744 245.898 32.5635C245.489 33.8525 244.866 35.0771 244.029 36.2373C243.212 37.376 242.192 38.4072 240.967 39.3311C239.764 40.2334 238.367 40.9209 236.778 41.3936C236.992 41.9521 237.272 42.4893 237.615 43.0049C237.981 43.499 238.41 43.9287 238.905 44.2939C239.399 44.6592 239.968 44.9492 240.613 45.1641C241.279 45.3789 242.041 45.4863 242.901 45.4863C244.19 45.4863 245.296 45.25 246.22 44.7773C247.144 44.2832 247.917 43.6387 248.54 42.8438C249.185 42.0488 249.7 41.1572 250.087 40.1689C250.474 39.1807 250.764 38.1816 250.957 37.1719C251.108 36.4414 251.408 35.958 251.86 35.7217C252.332 35.4639 252.805 35.3994 253.278 35.5283C253.772 35.6572 254.191 35.9365 254.534 36.3662C254.9 36.7744 255.05 37.2686 254.986 37.8486C254.9 38.5146 254.749 39.2773 254.534 40.1367C254.341 40.9961 254.04 41.8662 253.632 42.7471C253.224 43.6279 252.697 44.498 252.053 45.3574C251.43 46.1953 250.656 46.9473 249.733 47.6133C248.809 48.2793 247.724 48.8164 246.478 49.2246C245.232 49.6328 243.803 49.8369 242.192 49.8369C240.688 49.8369 239.227 49.5361 237.809 48.9346C236.412 48.3545 235.166 47.5166 234.071 46.4209C232.996 45.3037 232.126 43.9395 231.46 42.3281C230.816 40.6953 230.493 38.8477 230.493 36.7852C230.493 34.7012 230.783 32.7676 231.364 30.9844C231.944 29.1797 232.706 27.6221 233.652 26.3115C234.597 25.001 235.671 23.9805 236.874 23.25C238.077 22.498 239.313 22.1221 240.58 22.1221C241.504 22.1221 242.331 22.2832 243.062 22.6055C243.814 22.9277 244.447 23.3896 244.963 23.9912C245.479 24.5713 245.865 25.2695 246.123 26.0859C246.403 26.9023 246.542 27.8047 246.542 28.793ZM235.907 36.5918C235.907 36.7852 235.918 36.9785 235.94 37.1719C235.961 37.3652 235.972 37.5693 235.972 37.7842C236.788 37.3975 237.53 36.9033 238.196 36.3018C238.862 35.7002 239.431 35.0127 239.904 34.2393C240.376 33.4658 240.741 32.6279 240.999 31.7256C241.257 30.8018 241.386 29.8457 241.386 28.8574C241.386 28.127 241.257 27.5576 240.999 27.1494C240.763 26.7412 240.43 26.5371 240 26.5371C239.463 26.5371 238.98 26.7197 238.55 27.085C238.142 27.4502 237.777 27.9336 237.454 28.5352C237.154 29.1152 236.896 29.7812 236.681 30.5332C236.488 31.2637 236.326 32.0049 236.197 32.7568C236.069 33.5088 235.983 34.2285 235.94 34.916C235.897 35.582 235.886 36.1406 235.907 36.5918ZM247.965 16.9658C248.459 17.0088 249.007 17.041 249.609 17.0625C250.125 17.1055 250.748 17.1377 251.478 17.1592C252.209 17.1592 253.025 17.1699 253.927 17.1914V6.00879C253.927 5.53613 253.884 5.16016 253.798 4.88086C253.734 4.60156 253.659 4.38672 253.573 4.23633C253.508 4.06445 253.433 3.93555 253.347 3.84961C253.283 3.74219 253.251 3.63477 253.251 3.52734C253.251 3.39844 253.315 3.29102 253.444 3.20508C253.573 3.11914 253.745 3.04395 253.959 2.97949C254.174 2.91504 254.4 2.87207 254.636 2.85059C254.894 2.80762 255.141 2.78613 255.377 2.78613C256.473 2.78613 257.333 3.07617 257.956 3.65625C258.6 4.21484 258.922 4.8916 258.922 5.68652V17.2559C260.942 17.2559 263.069 17.2344 265.303 17.1914C267.559 17.1484 269.815 17.0732 272.071 16.9658C272.372 16.6436 272.608 16.5254 272.78 16.6113C272.973 16.6973 273.091 16.9014 273.134 17.2236C273.199 17.5459 273.209 17.9434 273.167 18.416C273.124 18.8887 273.038 19.3506 272.909 19.8018C272.78 20.2314 272.597 20.6074 272.361 20.9297C272.146 21.252 271.899 21.4131 271.62 21.4131C268.977 21.4775 266.635 21.5205 264.594 21.542C262.575 21.542 260.684 21.542 258.922 21.542V42.457C258.922 43.5312 259.126 44.3047 259.535 44.7773C259.943 45.25 260.491 45.4863 261.178 45.4863C261.844 45.4863 262.414 45.25 262.886 44.7773C263.38 44.3047 263.799 43.7139 264.143 43.0049C264.508 42.2959 264.798 41.5332 265.013 40.7168C265.25 39.8789 265.443 39.0947 265.593 38.3643C265.722 37.6768 265.937 37.1826 266.238 36.8818C266.539 36.5596 266.85 36.3984 267.172 36.3984C267.43 36.3984 267.699 36.4844 267.978 36.6562C268.257 36.8066 268.504 37.0107 268.719 37.2686C268.956 37.5264 269.138 37.8164 269.267 38.1387C269.417 38.4609 269.493 38.7832 269.493 39.1055C269.493 39.1484 269.493 39.2021 269.493 39.2666C269.493 39.3311 269.471 39.4277 269.428 39.5566C269.149 40.6523 268.762 41.8018 268.268 43.0049C267.795 44.208 267.172 45.3145 266.399 46.3242C265.647 47.334 264.745 48.1719 263.692 48.8379C262.639 49.5039 261.404 49.8369 259.986 49.8369C259.105 49.8369 258.289 49.6973 257.537 49.418C256.806 49.1602 256.172 48.7305 255.635 48.1289C255.098 47.5488 254.679 46.7969 254.378 45.873C254.078 44.9492 253.927 43.832 253.927 42.5215V21.542C253.197 21.542 252.542 21.542 251.961 21.542C251.403 21.5205 250.93 21.499 250.543 21.4775C250.092 21.4561 249.695 21.4346 249.351 21.4131C248.835 21.4131 248.384 21.1875 247.998 20.7363C247.589 20.2637 247.31 19.748 247.16 19.1895C246.988 18.6309 246.966 18.126 247.095 17.6748C247.203 17.2021 247.493 16.9658 247.965 16.9658ZM262.924 16.9658C263.418 17.0088 263.966 17.041 264.567 17.0625C265.083 17.1055 265.706 17.1377 266.436 17.1592C267.167 17.1592 267.983 17.1699 268.886 17.1914V6.00879C268.886 5.53613 268.843 5.16016 268.757 4.88086C268.692 4.60156 268.617 4.38672 268.531 4.23633C268.467 4.06445 268.391 3.93555 268.305 3.84961C268.241 3.74219 268.209 3.63477 268.209 3.52734C268.209 3.39844 268.273 3.29102 268.402 3.20508C268.531 3.11914 268.703 3.04395 268.918 2.97949C269.133 2.91504 269.358 2.87207 269.595 2.85059C269.852 2.80762 270.099 2.78613 270.336 2.78613C271.431 2.78613 272.291 3.07617 272.914 3.65625C273.558 4.21484 273.881 4.8916 273.881 5.68652V17.2559C275.9 17.2559 278.027 17.2344 280.262 17.1914C282.517 17.1484 284.773 17.0732 287.029 16.9658C287.33 16.6436 287.566 16.5254 287.738 16.6113C287.931 16.6973 288.05 16.9014 288.093 17.2236C288.157 17.5459 288.168 17.9434 288.125 18.416C288.082 18.8887 287.996 19.3506 287.867 19.8018C287.738 20.2314 287.555 20.6074 287.319 20.9297C287.104 21.252 286.857 21.4131 286.578 21.4131C283.935 21.4775 281.594 21.5205 279.553 21.542C277.533 21.542 275.642 21.542 273.881 21.542V42.457C273.881 43.5312 274.085 44.3047 274.493 44.7773C274.901 45.25 275.449 45.4863 276.137 45.4863C276.803 45.4863 277.372 45.25 277.845 44.7773C278.339 44.3047 278.758 43.7139 279.101 43.0049C279.467 42.2959 279.757 41.5332 279.971 40.7168C280.208 39.8789 280.401 39.0947 280.552 38.3643C280.68 37.6768 280.895 37.1826 281.196 36.8818C281.497 36.5596 281.808 36.3984 282.131 36.3984C282.388 36.3984 282.657 36.4844 282.936 36.6562C283.216 36.8066 283.463 37.0107 283.678 37.2686C283.914 37.5264 284.096 37.8164 284.225 38.1387C284.376 38.4609 284.451 38.7832 284.451 39.1055C284.451 39.1484 284.451 39.2021 284.451 39.2666C284.451 39.3311 284.43 39.4277 284.387 39.5566C284.107 40.6523 283.721 41.8018 283.226 43.0049C282.754 44.208 282.131 45.3145 281.357 46.3242C280.605 47.334 279.703 48.1719 278.65 48.8379C277.597 49.5039 276.362 49.8369 274.944 49.8369C274.063 49.8369 273.247 49.6973 272.495 49.418C271.764 49.1602 271.131 48.7305 270.594 48.1289C270.056 47.5488 269.638 46.7969 269.337 45.873C269.036 44.9492 268.886 43.832 268.886 42.5215V21.542C268.155 21.542 267.5 21.542 266.92 21.542C266.361 21.5205 265.888 21.499 265.502 21.4775C265.051 21.4561 264.653 21.4346 264.309 21.4131C263.794 21.4131 263.343 21.1875 262.956 20.7363C262.548 20.2637 262.268 19.748 262.118 19.1895C261.946 18.6309 261.925 18.126 262.054 17.6748C262.161 17.2021 262.451 16.9658 262.924 16.9658Z" fill="black"/>
</svg>
