<svg width="297" height="50" viewBox="0 0 297 50" fill="none" xmlns="http://www.w3.org/2000/svg">
<path d="M3.95 7.548L0.65 6.03V1.74C1.53 1.652 2.542 1.542 3.686 1.41C4.874 1.278 6.04 1.168 7.184 1.08C8.328 0.947999 9.318 0.859999 10.154 0.815999C10.99 0.772 11.54 0.793999 11.804 0.881998C12.376 1.058 12.86 1.366 13.256 1.806C13.696 2.246 14.07 2.708 14.378 3.192C14.686 3.632 14.884 3.984 14.972 4.248V36.06L19.328 37.578L17.084 41.868C16.204 41.956 15.236 42.066 14.18 42.198C13.124 42.33 12.112 42.44 11.144 42.528C10.176 42.66 9.318 42.748 8.57 42.792C7.866 42.836 7.382 42.814 7.118 42.726C6.59 42.55 6.106 42.242 5.666 41.802C5.226 41.362 4.852 40.922 4.544 40.482C4.28 39.998 4.082 39.624 3.95 39.36V7.548ZM26.39 39.36V16.59C26.39 14.698 26.236 13.312 25.928 12.432C25.62 11.508 25.18 10.914 24.608 10.65C24.036 10.342 23.354 10.188 22.562 10.188C22.342 10.188 22.056 10.232 21.704 10.32C21.352 10.364 20.978 10.43 20.582 10.518C20.186 10.606 19.768 10.738 19.328 10.914L17.48 4.908C17.964 4.644 18.602 4.292 19.394 3.852C20.186 3.368 21 2.906 21.836 2.466C22.716 1.982 23.464 1.586 24.08 1.278C24.74 0.925999 25.136 0.75 25.268 0.75C26.984 0.75 28.744 0.882 30.548 1.146C32.396 1.366 33.826 1.74 34.838 2.268C35.894 3.764 36.576 5.238 36.884 6.69C37.236 8.098 37.412 9.968 37.412 12.3V36.06L40.712 37.578V41.868C39.832 41.956 38.798 42.066 37.61 42.198C36.466 42.33 35.322 42.44 34.178 42.528C33.034 42.66 32.044 42.748 31.208 42.792C30.372 42.836 29.822 42.814 29.558 42.726C29.03 42.55 28.546 42.242 28.106 41.802C27.666 41.362 27.292 40.922 26.984 40.482C26.72 39.998 26.522 39.624 26.39 39.36ZM21.044 4.908V33.816C21.044 34.08 20.868 34.564 20.516 35.268C20.208 35.928 19.812 36.698 19.328 37.578H17.48V4.908H21.044ZM60.2784 42.792C57.8584 42.792 55.9004 42.352 54.4044 41.472C52.9524 40.592 51.8744 39.404 51.1704 37.908C50.5104 36.412 50.1804 34.784 50.1804 33.024C50.1804 32.012 50.2684 31 50.4444 29.988C50.6644 28.932 50.9284 27.854 51.2364 26.754L60.5424 30.186C60.4104 30.538 60.3004 30.934 60.2124 31.374C60.1684 31.814 60.1464 32.232 60.1464 32.628C60.1464 33.332 60.2784 34.058 60.5424 34.806C60.8504 35.51 61.3564 35.862 62.0604 35.862C62.4564 35.862 62.8964 35.774 63.3804 35.598C63.8644 35.378 64.3704 35.092 64.8984 34.74C65.4704 34.388 66.0424 34.014 66.6144 33.618V37.908C65.9104 38.436 65.0964 39.096 64.1724 39.888C63.2484 40.636 62.4124 41.318 61.6644 41.934C60.9164 42.506 60.4544 42.792 60.2784 42.792ZM51.2364 26.754L65.9544 25.104V29.328L59.7504 30.846L51.2364 26.754ZM51.9624 17.712L53.7444 11.178C55.0644 11.046 56.5164 10.958 58.1004 10.914C59.6844 10.826 61.2464 10.782 62.7864 10.782C64.3264 10.782 65.6684 10.892 66.8124 11.112C67.4724 11.244 68.2864 11.706 69.2544 12.498C70.2664 13.29 71.2564 14.236 72.2244 15.336C73.2364 16.436 74.0724 17.536 74.7324 18.636C75.3924 19.692 75.7224 20.55 75.7224 21.21V36.258L78.4944 37.248V41.406C77.3944 41.582 76.1184 41.78 74.6664 42C73.2144 42.22 71.8944 42.396 70.7064 42.528C69.5184 42.704 68.7484 42.792 68.3964 42.792C68.2644 42.792 67.9784 42.594 67.5384 42.198C67.1424 41.846 66.7464 41.45 66.3504 41.01C65.9984 40.57 65.8224 40.262 65.8224 40.086V38.304L65.4264 37.842V22.464C65.4264 21.232 65.2504 20.396 64.8984 19.956C64.5904 19.472 63.8644 19.208 62.7204 19.164C61.7524 19.076 60.6744 19.032 59.4864 19.032C58.3424 19.032 57.1984 19.054 56.0544 19.098C54.9104 19.142 53.8984 19.186 53.0184 19.23L51.9624 17.712ZM97.6226 42.792C95.2026 42.792 93.2446 42.352 91.7486 41.472C90.2966 40.592 89.2186 39.404 88.5146 37.908C87.8546 36.412 87.5246 34.784 87.5246 33.024C87.5246 32.012 87.6126 31 87.7886 29.988C88.0086 28.932 88.2726 27.854 88.5806 26.754L97.8866 30.186C97.7546 30.538 97.6446 30.934 97.5566 31.374C97.5126 31.814 97.4906 32.232 97.4906 32.628C97.4906 33.332 97.6226 34.058 97.8866 34.806C98.1946 35.51 98.7006 35.862 99.4046 35.862C99.8006 35.862 100.241 35.774 100.725 35.598C101.209 35.378 101.715 35.092 102.243 34.74C102.815 34.388 103.387 34.014 103.959 33.618V37.908C103.255 38.436 102.441 39.096 101.517 39.888C100.593 40.636 99.7566 41.318 99.0086 41.934C98.2606 42.506 97.7986 42.792 97.6226 42.792ZM88.5806 26.754L103.299 25.104V29.328L97.0946 30.846L88.5806 26.754ZM89.3066 17.712L91.0886 11.178C92.4086 11.046 93.8606 10.958 95.4446 10.914C97.0286 10.826 98.5906 10.782 100.131 10.782C101.671 10.782 103.013 10.892 104.157 11.112C104.817 11.244 105.631 11.706 106.599 12.498C107.611 13.29 108.601 14.236 109.569 15.336C110.581 16.436 111.417 17.536 112.077 18.636C112.737 19.692 113.067 20.55 113.067 21.21V36.258L115.839 37.248V41.406C114.739 41.582 113.463 41.78 112.011 42C110.559 42.22 109.239 42.396 108.051 42.528C106.863 42.704 106.093 42.792 105.741 42.792C105.609 42.792 105.323 42.594 104.883 42.198C104.487 41.846 104.091 41.45 103.695 41.01C103.343 40.57 103.167 40.262 103.167 40.086V38.304L102.771 37.842V22.464C102.771 21.232 102.595 20.396 102.243 19.956C101.935 19.472 101.209 19.208 100.065 19.164C99.0966 19.076 98.0186 19.032 96.8306 19.032C95.6866 19.032 94.5426 19.054 93.3986 19.098C92.2546 19.142 91.2426 19.186 90.3626 19.23L89.3066 17.712ZM136.353 42.792C133.889 42.792 131.777 42.22 130.017 41.076C128.257 39.888 126.915 38.238 125.991 36.126C125.067 33.97 124.605 31.418 124.605 28.47C124.605 26.402 124.781 24.444 125.133 22.596C125.485 20.748 125.881 19.296 126.321 18.24C126.761 17.712 127.531 17.052 128.631 16.26C129.731 15.424 130.919 14.588 132.195 13.752C133.515 12.916 134.747 12.212 135.891 11.64C137.035 11.068 137.849 10.782 138.333 10.782C139.521 10.782 140.951 10.936 142.623 11.244C144.339 11.508 145.879 11.882 147.243 12.366L147.045 22.53H141.369L140.181 17.184C139.741 16.92 139.279 16.7 138.795 16.524C138.355 16.304 137.937 16.194 137.541 16.194C137.409 16.194 137.255 16.216 137.079 16.26C136.947 16.304 136.837 16.37 136.749 16.458C136.485 16.678 136.243 17.272 136.023 18.24C135.803 19.164 135.627 20.352 135.495 21.804C135.407 23.256 135.363 24.906 135.363 26.754C135.363 28.382 135.517 29.856 135.825 31.176C136.133 32.452 136.595 33.464 137.211 34.212C137.871 34.96 138.707 35.334 139.719 35.334H147.243V39.558C146.715 39.734 145.967 40.02 144.999 40.416C144.031 40.768 142.997 41.12 141.897 41.472C140.797 41.824 139.741 42.132 138.729 42.396C137.761 42.66 136.969 42.792 136.353 42.792ZM167.155 42.792C164.735 42.792 162.777 42.352 161.281 41.472C159.829 40.592 158.751 39.404 158.047 37.908C157.387 36.412 157.057 34.784 157.057 33.024C157.057 32.012 157.145 31 157.321 29.988C157.541 28.932 157.805 27.854 158.113 26.754L167.419 30.186C167.287 30.538 167.177 30.934 167.089 31.374C167.045 31.814 167.023 32.232 167.023 32.628C167.023 33.332 167.155 34.058 167.419 34.806C167.727 35.51 168.233 35.862 168.937 35.862C169.333 35.862 169.773 35.774 170.257 35.598C170.741 35.378 171.247 35.092 171.775 34.74C172.347 34.388 172.919 34.014 173.491 33.618V37.908C172.787 38.436 171.973 39.096 171.049 39.888C170.125 40.636 169.289 41.318 168.541 41.934C167.793 42.506 167.331 42.792 167.155 42.792ZM158.113 26.754L172.831 25.104V29.328L166.627 30.846L158.113 26.754ZM158.839 17.712L160.621 11.178C161.941 11.046 163.393 10.958 164.977 10.914C166.561 10.826 168.123 10.782 169.663 10.782C171.203 10.782 172.545 10.892 173.689 11.112C174.349 11.244 175.163 11.706 176.131 12.498C177.143 13.29 178.133 14.236 179.101 15.336C180.113 16.436 180.949 17.536 181.609 18.636C182.269 19.692 182.599 20.55 182.599 21.21V36.258L185.371 37.248V41.406C184.271 41.582 182.995 41.78 181.543 42C180.091 42.22 178.771 42.396 177.583 42.528C176.395 42.704 175.625 42.792 175.273 42.792C175.141 42.792 174.855 42.594 174.415 42.198C174.019 41.846 173.623 41.45 173.227 41.01C172.875 40.57 172.699 40.262 172.699 40.086V38.304L172.303 37.842V22.464C172.303 21.232 172.127 20.396 171.775 19.956C171.467 19.472 170.741 19.208 169.597 19.164C168.629 19.076 167.551 19.032 166.363 19.032C165.219 19.032 164.075 19.054 162.931 19.098C161.787 19.142 160.775 19.186 159.895 19.23L158.839 17.712ZM208.459 42.792C207.931 42.792 207.051 42.77 205.819 42.726C204.631 42.682 203.289 42.616 201.793 42.528C200.297 42.44 198.823 42.33 197.371 42.198C195.963 42.11 194.797 42.022 193.873 41.934L194.071 30.846H198.955L200.341 36.126C201.045 36.346 201.859 36.588 202.783 36.852C203.707 37.116 204.565 37.336 205.357 37.512C206.193 37.644 206.831 37.71 207.271 37.71C207.491 37.71 207.667 37.6 207.799 37.38C207.975 37.16 208.107 36.874 208.195 36.522C208.283 36.17 208.327 35.84 208.327 35.532C208.327 34.872 208.041 34.3 207.469 33.816C206.897 33.288 206.105 32.738 205.093 32.166C204.125 31.594 202.959 30.934 201.595 30.186C199.527 28.998 197.943 27.92 196.843 26.952C195.743 25.94 194.995 24.928 194.599 23.916C194.247 22.86 194.071 21.716 194.071 20.484C194.071 19.912 194.093 19.318 194.137 18.702C194.225 18.086 194.357 17.514 194.533 16.986C194.973 16.458 195.567 15.842 196.315 15.138C197.107 14.434 197.943 13.752 198.823 13.092C199.703 12.432 200.517 11.882 201.265 11.442C202.057 11.002 202.673 10.782 203.113 10.782C203.729 10.782 204.609 10.804 205.753 10.848C206.897 10.848 208.129 10.892 209.449 10.98C210.769 11.024 212.023 11.09 213.211 11.178C214.399 11.222 215.345 11.288 216.049 11.376L215.851 20.88H210.439L209.977 17.184C209.801 17.096 209.405 16.986 208.789 16.854C208.173 16.722 207.491 16.59 206.743 16.458C205.995 16.326 205.313 16.216 204.697 16.128C204.081 15.996 203.663 15.93 203.443 15.93C203.223 15.93 203.047 16.018 202.915 16.194C202.827 16.37 202.761 16.568 202.717 16.788C202.673 17.008 202.651 17.206 202.651 17.382C202.651 18.086 202.959 18.746 203.575 19.362C204.235 19.978 204.983 20.528 205.819 21.012C206.699 21.496 207.425 21.914 207.997 22.266C209.009 22.838 210.065 23.454 211.165 24.114C212.265 24.774 213.321 25.5 214.333 26.292C215.345 27.04 216.159 27.854 216.775 28.734C217.391 29.614 217.699 30.56 217.699 31.572C217.699 32.144 217.655 32.826 217.567 33.618C217.523 34.41 217.391 35.048 217.171 35.532C216.819 36.104 216.291 36.808 215.587 37.644C214.883 38.48 214.091 39.294 213.211 40.086C212.331 40.834 211.473 41.472 210.637 42C209.801 42.528 209.075 42.792 208.459 42.792ZM237.799 49.128C237.535 49.128 236.853 48.908 235.753 48.468C234.697 48.072 233.575 47.61 232.387 47.082C231.199 46.554 230.231 46.092 229.483 45.696L243.475 17.58L243.343 16.788H233.113L232.321 21.87H227.239L226.711 10.452H251.857L252.649 14.808L240.307 47.874C239.999 48.094 239.581 48.358 239.053 48.666C238.525 48.974 238.107 49.128 237.799 49.128ZM262.975 41.472L263.503 28.866H268.981L270.631 35.202C271.467 35.598 272.413 35.95 273.469 36.258C274.525 36.566 275.559 36.852 276.571 37.116C277.583 37.336 278.485 37.512 279.277 37.644C280.069 37.776 280.619 37.842 280.927 37.842C281.411 37.842 282.005 37.71 282.709 37.446C283.413 37.182 284.117 36.852 284.821 36.456C285.525 36.016 286.119 35.554 286.603 35.07C287.131 34.586 287.439 34.146 287.527 33.75C287.615 33.398 287.659 32.936 287.659 32.364C287.703 31.792 287.725 31.198 287.725 30.582C287.725 29.966 287.681 29.416 287.593 28.932C287.505 28.448 287.395 28.118 287.263 27.942C286.911 27.502 286.097 26.952 284.821 26.292C283.545 25.588 282.071 24.84 280.399 24.048C278.727 23.212 277.077 22.398 275.449 21.606C273.821 20.77 272.435 20 271.291 19.296C270.191 18.592 269.575 18.02 269.443 17.58C269.267 16.964 269.113 16.216 268.981 15.336C268.893 14.456 268.827 13.532 268.783 12.564C268.739 11.552 268.717 10.606 268.717 9.726C267.881 10.386 267.287 10.958 266.935 11.442C266.627 11.882 266.429 12.322 266.341 12.762C266.297 13.202 266.275 13.796 266.275 14.544C266.275 15.776 266.297 16.788 266.341 17.58C266.429 18.328 266.671 18.988 267.067 19.56C267.419 20 267.925 20.44 268.585 20.88C269.245 21.32 270.125 21.826 271.225 22.398C272.501 23.058 273.865 23.762 275.317 24.51C276.813 25.214 278.243 25.94 279.607 26.688C280.971 27.392 282.137 28.03 283.105 28.602C284.073 29.174 284.667 29.614 284.887 29.922C285.151 30.23 285.261 30.736 285.217 31.44C285.173 32.1 285.107 32.672 285.019 33.156C284.755 33.552 284.315 33.948 283.699 34.344C283.083 34.74 282.445 35.07 281.785 35.334C281.873 34.938 281.917 34.476 281.917 33.948C281.961 33.42 281.961 32.958 281.917 32.562C281.917 32.122 281.851 31.836 281.719 31.704C281.411 31.352 280.707 30.868 279.607 30.252C278.507 29.636 277.187 28.954 275.647 28.206C274.151 27.458 272.611 26.688 271.027 25.896C269.487 25.104 268.123 24.334 266.935 23.586C265.747 22.794 264.911 22.09 264.427 21.474C264.163 21.078 263.943 20.462 263.767 19.626C263.635 18.746 263.525 17.8 263.437 16.788C263.393 15.776 263.371 14.808 263.371 13.884C263.415 12.916 263.503 12.146 263.635 11.574C263.855 10.782 264.405 9.924 265.285 9C266.165 8.032 267.199 7.064 268.387 6.096C269.619 5.128 270.873 4.248 272.149 3.456C273.469 2.62 274.679 1.96 275.779 1.476C276.923 0.992 277.847 0.75 278.551 0.75C278.859 0.75 279.519 0.793999 280.531 0.881998C281.587 0.925998 282.819 1.014 284.227 1.146C285.635 1.278 287.087 1.432 288.583 1.608C290.079 1.74 291.465 1.894 292.741 2.07C294.017 2.246 295.051 2.4 295.843 2.532L295.315 14.412H290.233L288.583 7.152C287.967 6.844 287.109 6.536 286.009 6.228C284.953 5.92 283.897 5.656 282.841 5.436C281.785 5.172 280.971 5.04 280.399 5.04C280.179 5.04 279.981 5.062 279.805 5.106C279.629 5.106 279.475 5.15 279.343 5.238C279.211 5.282 279.079 5.37 278.947 5.502C278.683 5.766 278.507 6.184 278.419 6.756C278.331 7.284 278.287 7.878 278.287 8.538C278.331 9.154 278.397 9.748 278.485 10.32C278.617 10.848 278.771 11.266 278.947 11.574C279.079 11.838 279.651 12.234 280.663 12.762C281.719 13.29 282.973 13.906 284.425 14.61C285.921 15.27 287.461 15.996 289.045 16.788C290.673 17.536 292.147 18.306 293.467 19.098C294.787 19.89 295.777 20.66 296.437 21.408C296.569 21.804 296.657 22.42 296.701 23.256C296.789 24.048 296.855 24.972 296.899 26.028C296.943 27.084 296.965 28.184 296.965 29.328C296.965 30.472 296.921 31.572 296.833 32.628C296.393 33.86 295.513 35.092 294.193 36.324C292.917 37.512 291.443 38.59 289.771 39.558C288.143 40.526 286.603 41.318 285.151 41.934C283.699 42.506 282.599 42.792 281.851 42.792C280.883 42.792 279.563 42.748 277.891 42.66C276.263 42.572 274.503 42.462 272.611 42.33C270.763 42.198 268.981 42.066 267.265 41.934C265.549 41.758 264.119 41.604 262.975 41.472Z" fill="black"/>
</svg>
